<?xml version="1.0" encoding="UTF-8"?>
<svg xmlns="http://www.w3.org/2000/svg" xmlns:xlink="http://www.w3.org/1999/xlink" width="261pt" height="178pt" viewBox="0 0 261 178" version="1.1">
<defs>
<filter id="alpha" filterUnits="objectBoundingBox" x="0%" y="0%" width="100%" height="100%">
  <feColorMatrix type="matrix" in="SourceGraphic" values="0 0 0 0 1 0 0 0 0 1 0 0 0 0 1 0 0 0 1 0"/>
</filter>
<mask id="mask0">
  <g filter="url(#alpha)">
<rect x="0" y="0" width="261" height="178" style="fill:rgb(0%,0%,0%);fill-opacity:0.101961;stroke:none;"/>
  </g>
</mask>
<clipPath id="clip1">
  <rect width="261" height="178"/>
</clipPath>
<g id="surface6" clip-path="url(#clip1)">
<path style=" stroke:none;fill-rule:nonzero;fill:rgb(0%,0%,0%);fill-opacity:1;" d="M 118.851562 110.300781 C 118.851562 110.300781 115.847656 102.015625 116.097656 100.507812 C 116.347656 99.003906 115.597656 95.988281 115.597656 95.988281 L 114.59375 75.652344 C 114.59375 75.652344 118.851562 57.578125 109.335938 54.566406 C 109.335938 54.566406 106.925781 55.617188 104.953125 59.007812 C 103 59.878906 100.632812 62.082031 100.066406 67.621094 C 99.066406 77.410156 103.574219 102.515625 105.828125 106.785156 C 108.082031 111.054688 109.585938 114.066406 109.585938 114.066406 L 111.941406 113.015625 C 112.039062 113.210938 112.089844 113.3125 112.089844 113.3125 Z M 118.851562 110.300781 "/>
</g>
</defs>
<g id="surface1">
<path style=" stroke:none;fill-rule:nonzero;fill:rgb(24.705882%,23.921569%,33.72549%);fill-opacity:1;" d="M 0 0 L 219.167969 0 L 219.167969 118.167969 L 0 118.167969 Z M 0 0 "/>
<path style=" stroke:none;fill-rule:nonzero;fill:rgb(81.960784%,66.27451%,46.666667%);fill-opacity:1;" d="M 39.621094 16.660156 L 41.554688 16.660156 L 41.554688 19.757812 L 39.621094 19.757812 Z M 39.621094 16.660156 "/>
<path style=" stroke:none;fill-rule:nonzero;fill:rgb(81.960784%,66.27451%,46.666667%);fill-opacity:1;" d="M 46.191406 15.886719 L 48.125 15.886719 L 48.125 18.984375 L 46.191406 18.984375 Z M 46.191406 15.886719 "/>
<path style=" stroke:none;fill-rule:nonzero;fill:rgb(81.960784%,66.27451%,46.666667%);fill-opacity:1;" d="M 49.671875 15.886719 L 51.601562 15.886719 L 51.601562 18.984375 L 49.671875 18.984375 Z M 49.671875 15.886719 "/>
<path style=" stroke:none;fill-rule:nonzero;fill:rgb(81.960784%,66.27451%,46.666667%);fill-opacity:1;" d="M 49.671875 25.183594 L 51.601562 25.183594 L 51.601562 28.28125 L 49.671875 28.28125 Z M 49.671875 25.183594 "/>
<path style=" stroke:none;fill-rule:nonzero;fill:rgb(81.960784%,66.27451%,46.666667%);fill-opacity:1;" d="M 53.535156 20.535156 L 55.46875 20.535156 L 55.46875 23.632812 L 53.535156 23.632812 Z M 53.535156 20.535156 "/>
<path style=" stroke:none;fill-rule:nonzero;fill:rgb(81.960784%,66.27451%,46.666667%);fill-opacity:1;" d="M 53.535156 25.570312 L 55.46875 25.570312 L 55.46875 28.671875 L 53.535156 28.671875 Z M 53.535156 25.570312 "/>
<path style=" stroke:none;fill-rule:nonzero;fill:rgb(81.960784%,66.27451%,46.666667%);fill-opacity:1;" d="M 49.671875 35.257812 L 51.601562 35.257812 L 51.601562 38.355469 L 49.671875 38.355469 Z M 49.671875 35.257812 "/>
<path style=" stroke:none;fill-rule:nonzero;fill:rgb(81.960784%,66.27451%,46.666667%);fill-opacity:1;" d="M 53.535156 40.292969 L 55.46875 40.292969 L 55.46875 43.394531 L 53.535156 43.394531 Z M 53.535156 40.292969 "/>
<path style=" stroke:none;fill-rule:nonzero;fill:rgb(81.960784%,66.27451%,46.666667%);fill-opacity:1;" d="M 49.671875 59.277344 L 51.601562 59.277344 L 51.601562 62.378906 L 49.671875 62.378906 Z M 49.671875 59.277344 "/>
<path style=" stroke:none;fill-rule:nonzero;fill:rgb(81.960784%,66.27451%,46.666667%);fill-opacity:1;" d="M 46.191406 40.292969 L 48.125 40.292969 L 48.125 43.394531 L 46.191406 43.394531 Z M 46.191406 40.292969 "/>
<path style=" stroke:none;fill-rule:nonzero;fill:rgb(81.960784%,66.27451%,46.666667%);fill-opacity:1;" d="M 39.621094 21.695312 L 41.554688 21.695312 L 41.554688 24.796875 L 39.621094 24.796875 Z M 39.621094 21.695312 "/>
<path style=" stroke:none;fill-rule:nonzero;fill:rgb(81.960784%,66.27451%,46.666667%);fill-opacity:1;" d="M 39.621094 70.125 L 41.554688 70.125 L 41.554688 73.226562 L 39.621094 73.226562 Z M 39.621094 70.125 "/>
<path style=" stroke:none;fill-rule:nonzero;fill:rgb(81.960784%,66.27451%,46.666667%);fill-opacity:1;" d="M 39.621094 80.199219 L 41.554688 80.199219 L 41.554688 83.296875 L 39.621094 83.296875 Z M 39.621094 80.199219 "/>
<path style=" stroke:none;fill-rule:nonzero;fill:rgb(81.960784%,66.27451%,46.666667%);fill-opacity:1;" d="M 39.621094 85.234375 L 41.554688 85.234375 L 41.554688 88.335938 L 39.621094 88.335938 Z M 39.621094 85.234375 "/>
<path style=" stroke:none;fill-rule:nonzero;fill:rgb(81.960784%,66.27451%,46.666667%);fill-opacity:1;" d="M 38.847656 27.121094 L 41.554688 27.121094 L 41.554688 27.507812 L 38.847656 27.507812 Z M 38.847656 27.121094 "/>
<path style=" stroke:none;fill-rule:nonzero;fill:rgb(81.960784%,66.27451%,46.666667%);fill-opacity:1;" d="M 49.285156 31.769531 L 51.988281 31.769531 L 51.988281 32.15625 L 49.285156 32.15625 Z M 49.285156 31.769531 "/>
<path style=" stroke:none;fill-rule:nonzero;fill:rgb(81.960784%,66.27451%,46.666667%);fill-opacity:1;" d="M 38.847656 51.917969 L 41.554688 51.917969 L 41.554688 52.304688 L 38.847656 52.304688 Z M 38.847656 51.917969 "/>
<path style=" stroke:none;fill-rule:nonzero;fill:rgb(81.960784%,66.27451%,46.666667%);fill-opacity:1;" d="M 38.847656 56.179688 L 41.554688 56.179688 L 41.554688 56.566406 L 38.847656 56.566406 Z M 38.847656 56.179688 "/>
<path style=" stroke:none;fill-rule:nonzero;fill:rgb(81.960784%,66.27451%,46.666667%);fill-opacity:1;" d="M 49.285156 80.972656 L 51.988281 80.972656 L 51.988281 81.363281 L 49.285156 81.363281 Z M 49.285156 80.972656 "/>
<path style=" stroke:none;fill-rule:nonzero;fill:rgb(81.960784%,66.27451%,46.666667%);fill-opacity:1;" d="M 46.191406 90.273438 L 48.898438 90.273438 L 48.898438 90.660156 L 46.191406 90.660156 Z M 46.191406 90.273438 "/>
<path style=" stroke:none;fill-rule:nonzero;fill:rgb(81.960784%,66.27451%,46.666667%);fill-opacity:1;" d="M 39.621094 30.609375 L 39.621094 31.382812 L 40.394531 31.382812 L 40.394531 32.933594 L 39.621094 32.933594 L 39.621094 33.707031 L 41.554688 33.707031 L 41.554688 30.609375 Z M 39.621094 30.609375 "/>
<path style=" stroke:none;fill-rule:nonzero;fill:rgb(81.960784%,66.27451%,46.666667%);fill-opacity:1;" d="M 46.191406 25.183594 L 46.191406 25.957031 L 46.964844 25.957031 L 46.964844 27.507812 L 46.191406 27.507812 L 46.191406 28.28125 L 48.125 28.28125 L 48.125 25.183594 Z M 46.191406 25.183594 "/>
<path style=" stroke:none;fill-rule:nonzero;fill:rgb(81.960784%,66.27451%,46.666667%);fill-opacity:1;" d="M 53.535156 30.21875 L 53.535156 30.996094 L 54.308594 30.996094 L 54.308594 32.542969 L 53.535156 32.542969 L 53.535156 33.320312 L 55.46875 33.320312 L 55.46875 30.21875 Z M 53.535156 30.21875 "/>
<path style=" stroke:none;fill-rule:nonzero;fill:rgb(81.960784%,66.27451%,46.666667%);fill-opacity:1;" d="M 53.535156 45.328125 L 53.535156 46.105469 L 54.308594 46.105469 L 54.308594 47.65625 L 53.535156 47.65625 L 53.535156 48.429688 L 55.46875 48.429688 L 55.46875 45.328125 Z M 53.535156 45.328125 "/>
<path style=" stroke:none;fill-rule:nonzero;fill:rgb(81.960784%,66.27451%,46.666667%);fill-opacity:1;" d="M 53.535156 50.367188 L 53.535156 51.140625 L 54.308594 51.140625 L 54.308594 52.691406 L 53.535156 52.691406 L 53.535156 53.464844 L 55.46875 53.464844 L 55.46875 50.367188 Z M 53.535156 50.367188 "/>
<path style=" stroke:none;fill-rule:nonzero;fill:rgb(81.960784%,66.27451%,46.666667%);fill-opacity:1;" d="M 53.535156 34.871094 L 53.535156 35.644531 L 54.308594 35.644531 L 54.308594 37.195312 L 53.535156 37.195312 L 53.535156 37.96875 L 55.46875 37.96875 L 55.46875 34.871094 Z M 53.535156 34.871094 "/>
<path style=" stroke:none;fill-rule:nonzero;fill:rgb(81.960784%,66.27451%,46.666667%);fill-opacity:1;" d="M 49.671875 20.535156 L 49.671875 21.308594 L 50.445312 21.308594 L 50.445312 22.859375 L 49.671875 22.859375 L 49.671875 23.632812 L 51.605469 23.632812 L 51.605469 20.535156 Z M 49.671875 20.535156 "/>
<path style=" stroke:none;fill-rule:nonzero;fill:rgb(81.960784%,66.27451%,46.666667%);fill-opacity:1;" d="M 49.671875 45.328125 L 51.601562 45.328125 L 51.601562 48.429688 L 49.671875 48.429688 Z M 49.671875 45.328125 "/>
<path style=" stroke:none;fill-rule:nonzero;fill:rgb(81.960784%,66.27451%,46.666667%);fill-opacity:1;" d="M 49.671875 54.628906 L 51.601562 54.628906 L 51.601562 57.726562 L 49.671875 57.726562 Z M 49.671875 54.628906 "/>
<path style=" stroke:none;fill-rule:nonzero;fill:rgb(81.960784%,66.27451%,46.666667%);fill-opacity:1;" d="M 49.671875 49.980469 L 49.671875 50.753906 L 50.445312 50.753906 L 50.445312 52.304688 L 49.671875 52.304688 L 49.671875 53.078125 L 51.605469 53.078125 L 51.605469 49.980469 Z M 49.671875 49.980469 "/>
<path style=" stroke:none;fill-rule:nonzero;fill:rgb(81.960784%,66.27451%,46.666667%);fill-opacity:1;" d="M 46.191406 30.21875 L 46.191406 30.996094 L 46.964844 30.996094 L 46.964844 32.542969 L 46.191406 32.542969 L 46.191406 33.320312 L 48.125 33.320312 L 48.125 30.21875 Z M 46.191406 30.21875 "/>
<path style=" stroke:none;fill-rule:nonzero;fill:rgb(81.960784%,66.27451%,46.666667%);fill-opacity:1;" d="M 46.191406 35.257812 L 46.191406 36.03125 L 46.964844 36.03125 L 46.964844 37.582031 L 46.191406 37.582031 L 46.191406 38.355469 L 48.125 38.355469 L 48.125 35.257812 Z M 46.191406 35.257812 "/>
<path style=" stroke:none;fill-rule:nonzero;fill:rgb(81.960784%,66.27451%,46.666667%);fill-opacity:1;" d="M 46.191406 50.367188 L 48.125 50.367188 L 48.125 53.464844 L 46.191406 53.464844 Z M 46.191406 50.367188 "/>
<path style=" stroke:none;fill-rule:nonzero;fill:rgb(81.960784%,66.27451%,46.666667%);fill-opacity:1;" d="M 46.191406 45.328125 L 46.191406 46.105469 L 46.964844 46.105469 L 46.964844 47.65625 L 46.191406 47.65625 L 46.191406 48.429688 L 48.125 48.429688 L 48.125 45.328125 Z M 46.191406 45.328125 "/>
<path style=" stroke:none;fill-rule:nonzero;fill:rgb(81.960784%,66.27451%,46.666667%);fill-opacity:1;" d="M 46.191406 60.441406 L 48.125 60.441406 L 48.125 63.539062 L 46.191406 63.539062 Z M 46.191406 60.441406 "/>
<path style=" stroke:none;fill-rule:nonzero;fill:rgb(81.960784%,66.27451%,46.666667%);fill-opacity:1;" d="M 46.191406 55.402344 L 46.191406 56.179688 L 46.964844 56.179688 L 46.964844 57.726562 L 46.191406 57.726562 L 46.191406 58.503906 L 48.125 58.503906 L 48.125 55.402344 Z M 46.191406 55.402344 "/>
<path style=" stroke:none;fill-rule:nonzero;fill:rgb(81.960784%,66.27451%,46.666667%);fill-opacity:1;" d="M 46.191406 70.511719 L 48.125 70.511719 L 48.125 73.613281 L 46.191406 73.613281 Z M 46.191406 70.511719 "/>
<path style=" stroke:none;fill-rule:nonzero;fill:rgb(81.960784%,66.27451%,46.666667%);fill-opacity:1;" d="M 49.671875 69.738281 L 51.601562 69.738281 L 51.601562 72.835938 L 49.671875 72.835938 Z M 49.671875 69.738281 "/>
<path style=" stroke:none;fill-rule:nonzero;fill:rgb(81.960784%,66.27451%,46.666667%);fill-opacity:1;" d="M 46.191406 65.476562 L 46.191406 66.25 L 46.964844 66.25 L 46.964844 67.800781 L 46.191406 67.800781 L 46.191406 68.574219 L 48.125 68.574219 L 48.125 65.476562 Z M 46.191406 65.476562 "/>
<path style=" stroke:none;fill-rule:nonzero;fill:rgb(81.960784%,66.27451%,46.666667%);fill-opacity:1;" d="M 53.535156 65.476562 L 53.535156 66.25 L 54.308594 66.25 L 54.308594 67.800781 L 53.535156 67.800781 L 53.535156 68.574219 L 55.46875 68.574219 L 55.46875 65.476562 Z M 53.535156 65.476562 "/>
<path style=" stroke:none;fill-rule:nonzero;fill:rgb(81.960784%,66.27451%,46.666667%);fill-opacity:1;" d="M 73.25 20.535156 L 75.183594 20.535156 L 75.183594 23.632812 L 73.25 23.632812 Z M 73.25 20.535156 "/>
<path style=" stroke:none;fill-rule:nonzero;fill:rgb(81.960784%,66.27451%,46.666667%);fill-opacity:1;" d="M 73.25 25.570312 L 75.183594 25.570312 L 75.183594 28.671875 L 73.25 28.671875 Z M 73.25 25.570312 "/>
<path style=" stroke:none;fill-rule:nonzero;fill:rgb(81.960784%,66.27451%,46.666667%);fill-opacity:1;" d="M 73.25 40.292969 L 75.183594 40.292969 L 75.183594 43.394531 L 73.25 43.394531 Z M 73.25 40.292969 "/>
<path style=" stroke:none;fill-rule:nonzero;fill:rgb(81.960784%,66.27451%,46.666667%);fill-opacity:1;" d="M 73.25 30.21875 L 73.25 30.996094 L 74.023438 30.996094 L 74.023438 32.542969 L 73.25 32.542969 L 73.25 33.320312 L 75.183594 33.320312 L 75.183594 30.21875 Z M 73.25 30.21875 "/>
<path style=" stroke:none;fill-rule:nonzero;fill:rgb(81.960784%,66.27451%,46.666667%);fill-opacity:1;" d="M 73.25 45.328125 L 73.25 46.105469 L 74.023438 46.105469 L 74.023438 47.65625 L 73.25 47.65625 L 73.25 48.429688 L 75.183594 48.429688 L 75.183594 45.328125 Z M 73.25 45.328125 "/>
<path style=" stroke:none;fill-rule:nonzero;fill:rgb(81.960784%,66.27451%,46.666667%);fill-opacity:1;" d="M 73.25 50.367188 L 73.25 51.140625 L 74.023438 51.140625 L 74.023438 52.691406 L 73.25 52.691406 L 73.25 53.464844 L 75.183594 53.464844 L 75.183594 50.367188 Z M 73.25 50.367188 "/>
<path style=" stroke:none;fill-rule:nonzero;fill:rgb(81.960784%,66.27451%,46.666667%);fill-opacity:1;" d="M 73.25 34.871094 L 73.25 35.644531 L 74.023438 35.644531 L 74.023438 37.195312 L 73.25 37.195312 L 73.25 37.96875 L 75.183594 37.96875 L 75.183594 34.871094 Z M 73.25 34.871094 "/>
<path style=" stroke:none;fill-rule:nonzero;fill:rgb(81.960784%,66.27451%,46.666667%);fill-opacity:1;" d="M 73.25 65.476562 L 73.25 66.25 L 74.023438 66.25 L 74.023438 67.800781 L 73.25 67.800781 L 73.25 68.574219 L 75.183594 68.574219 L 75.183594 65.476562 Z M 73.25 65.476562 "/>
<path style=" stroke:none;fill-rule:nonzero;fill:rgb(81.960784%,66.27451%,46.666667%);fill-opacity:1;" d="M 46.191406 80.585938 L 48.125 80.585938 L 48.125 83.6875 L 46.191406 83.6875 Z M 46.191406 80.585938 "/>
<path style=" stroke:none;fill-rule:nonzero;fill:rgb(81.960784%,66.27451%,46.666667%);fill-opacity:1;" d="M 49.671875 74.773438 L 51.601562 74.773438 L 51.601562 77.875 L 49.671875 77.875 Z M 49.671875 74.773438 "/>
<path style=" stroke:none;fill-rule:nonzero;fill:rgb(81.960784%,66.27451%,46.666667%);fill-opacity:1;" d="M 46.191406 93.757812 L 48.125 93.757812 L 48.125 96.859375 L 46.191406 96.859375 Z M 46.191406 93.757812 "/>
<path style=" stroke:none;fill-rule:nonzero;fill:rgb(81.960784%,66.27451%,46.666667%);fill-opacity:1;" d="M 49.671875 84.460938 L 51.601562 84.460938 L 51.601562 87.558594 L 49.671875 87.558594 Z M 49.671875 84.460938 "/>
<path style=" stroke:none;fill-rule:nonzero;fill:rgb(81.960784%,66.27451%,46.666667%);fill-opacity:1;" d="M 46.191406 75.550781 L 46.191406 76.324219 L 46.964844 76.324219 L 46.964844 77.875 L 46.191406 77.875 L 46.191406 78.648438 L 48.125 78.648438 L 48.125 75.550781 Z M 46.191406 75.550781 "/>
<path style=" stroke:none;fill-rule:nonzero;fill:rgb(81.960784%,66.27451%,46.666667%);fill-opacity:1;" d="M 46.191406 99.183594 L 46.191406 99.957031 L 46.964844 99.957031 L 46.964844 101.507812 L 46.191406 101.507812 L 46.191406 102.28125 L 48.125 102.28125 L 48.125 99.183594 Z M 46.191406 99.183594 "/>
<path style=" stroke:none;fill-rule:nonzero;fill:rgb(81.960784%,66.27451%,46.666667%);fill-opacity:1;" d="M 67.453125 15.886719 L 69.382812 15.886719 L 69.382812 18.984375 L 67.453125 18.984375 Z M 67.453125 15.886719 "/>
<path style=" stroke:none;fill-rule:nonzero;fill:rgb(81.960784%,66.27451%,46.666667%);fill-opacity:1;" d="M 67.453125 40.292969 L 69.382812 40.292969 L 69.382812 43.394531 L 67.453125 43.394531 Z M 67.453125 40.292969 "/>
<path style=" stroke:none;fill-rule:nonzero;fill:rgb(81.960784%,66.27451%,46.666667%);fill-opacity:1;" d="M 67.453125 90.273438 L 70.15625 90.273438 L 70.15625 90.660156 L 67.453125 90.660156 Z M 67.453125 90.273438 "/>
<path style=" stroke:none;fill-rule:nonzero;fill:rgb(81.960784%,66.27451%,46.666667%);fill-opacity:1;" d="M 67.453125 25.183594 L 67.453125 25.957031 L 68.226562 25.957031 L 68.226562 27.507812 L 67.453125 27.507812 L 67.453125 28.28125 L 69.382812 28.28125 L 69.382812 25.183594 Z M 67.453125 25.183594 "/>
<path style=" stroke:none;fill-rule:nonzero;fill:rgb(81.960784%,66.27451%,46.666667%);fill-opacity:1;" d="M 67.453125 30.21875 L 67.453125 30.996094 L 68.226562 30.996094 L 68.226562 32.542969 L 67.453125 32.542969 L 67.453125 33.320312 L 69.382812 33.320312 L 69.382812 30.21875 Z M 67.453125 30.21875 "/>
<path style=" stroke:none;fill-rule:nonzero;fill:rgb(81.960784%,66.27451%,46.666667%);fill-opacity:1;" d="M 67.453125 35.257812 L 67.453125 36.03125 L 68.226562 36.03125 L 68.226562 37.582031 L 67.453125 37.582031 L 67.453125 38.355469 L 69.382812 38.355469 L 69.382812 35.257812 Z M 67.453125 35.257812 "/>
<path style=" stroke:none;fill-rule:nonzero;fill:rgb(81.960784%,66.27451%,46.666667%);fill-opacity:1;" d="M 67.453125 50.367188 L 69.382812 50.367188 L 69.382812 53.464844 L 67.453125 53.464844 Z M 67.453125 50.367188 "/>
<path style=" stroke:none;fill-rule:nonzero;fill:rgb(81.960784%,66.27451%,46.666667%);fill-opacity:1;" d="M 67.453125 45.328125 L 67.453125 46.105469 L 68.226562 46.105469 L 68.226562 47.65625 L 67.453125 47.65625 L 67.453125 48.429688 L 69.382812 48.429688 L 69.382812 45.328125 Z M 67.453125 45.328125 "/>
<path style=" stroke:none;fill-rule:nonzero;fill:rgb(81.960784%,66.27451%,46.666667%);fill-opacity:1;" d="M 67.453125 60.441406 L 69.382812 60.441406 L 69.382812 63.539062 L 67.453125 63.539062 Z M 67.453125 60.441406 "/>
<path style=" stroke:none;fill-rule:nonzero;fill:rgb(81.960784%,66.27451%,46.666667%);fill-opacity:1;" d="M 67.453125 55.402344 L 67.453125 56.179688 L 68.226562 56.179688 L 68.226562 57.726562 L 67.453125 57.726562 L 67.453125 58.503906 L 69.382812 58.503906 L 69.382812 55.402344 Z M 67.453125 55.402344 "/>
<path style=" stroke:none;fill-rule:nonzero;fill:rgb(81.960784%,66.27451%,46.666667%);fill-opacity:1;" d="M 67.453125 70.511719 L 69.382812 70.511719 L 69.382812 73.613281 L 67.453125 73.613281 Z M 67.453125 70.511719 "/>
<path style=" stroke:none;fill-rule:nonzero;fill:rgb(81.960784%,66.27451%,46.666667%);fill-opacity:1;" d="M 67.453125 65.476562 L 67.453125 66.25 L 68.226562 66.25 L 68.226562 67.800781 L 67.453125 67.800781 L 67.453125 68.574219 L 69.382812 68.574219 L 69.382812 65.476562 Z M 67.453125 65.476562 "/>
<path style=" stroke:none;fill-rule:nonzero;fill:rgb(81.960784%,66.27451%,46.666667%);fill-opacity:1;" d="M 67.453125 80.585938 L 69.382812 80.585938 L 69.382812 83.6875 L 67.453125 83.6875 Z M 67.453125 80.585938 "/>
<path style=" stroke:none;fill-rule:nonzero;fill:rgb(81.960784%,66.27451%,46.666667%);fill-opacity:1;" d="M 67.453125 93.757812 L 69.382812 93.757812 L 69.382812 96.859375 L 67.453125 96.859375 Z M 67.453125 93.757812 "/>
<path style=" stroke:none;fill-rule:nonzero;fill:rgb(81.960784%,66.27451%,46.666667%);fill-opacity:1;" d="M 67.453125 75.550781 L 67.453125 76.324219 L 68.226562 76.324219 L 68.226562 77.875 L 67.453125 77.875 L 67.453125 78.648438 L 69.382812 78.648438 L 69.382812 75.550781 Z M 67.453125 75.550781 "/>
<path style=" stroke:none;fill-rule:nonzero;fill:rgb(81.960784%,66.27451%,46.666667%);fill-opacity:1;" d="M 67.453125 99.183594 L 67.453125 99.957031 L 68.226562 99.957031 L 68.226562 101.507812 L 67.453125 101.507812 L 67.453125 102.28125 L 69.382812 102.28125 L 69.382812 99.183594 Z M 67.453125 99.183594 "/>
<path style=" stroke:none;fill-rule:nonzero;fill:rgb(81.960784%,66.27451%,46.666667%);fill-opacity:1;" d="M 76.730469 15.886719 L 78.660156 15.886719 L 78.660156 18.984375 L 76.730469 18.984375 Z M 76.730469 15.886719 "/>
<path style=" stroke:none;fill-rule:nonzero;fill:rgb(81.960784%,66.27451%,46.666667%);fill-opacity:1;" d="M 76.730469 40.292969 L 78.660156 40.292969 L 78.660156 43.394531 L 76.730469 43.394531 Z M 76.730469 40.292969 "/>
<path style=" stroke:none;fill-rule:nonzero;fill:rgb(81.960784%,66.27451%,46.666667%);fill-opacity:1;" d="M 76.730469 90.273438 L 79.433594 90.273438 L 79.433594 90.660156 L 76.730469 90.660156 Z M 76.730469 90.273438 "/>
<path style=" stroke:none;fill-rule:nonzero;fill:rgb(81.960784%,66.27451%,46.666667%);fill-opacity:1;" d="M 76.730469 25.183594 L 76.730469 25.957031 L 77.503906 25.957031 L 77.503906 27.507812 L 76.730469 27.507812 L 76.730469 28.28125 L 78.660156 28.28125 L 78.660156 25.183594 Z M 76.730469 25.183594 "/>
<path style=" stroke:none;fill-rule:nonzero;fill:rgb(81.960784%,66.27451%,46.666667%);fill-opacity:1;" d="M 76.730469 30.21875 L 76.730469 30.996094 L 77.503906 30.996094 L 77.503906 32.542969 L 76.730469 32.542969 L 76.730469 33.320312 L 78.660156 33.320312 L 78.660156 30.21875 Z M 76.730469 30.21875 "/>
<path style=" stroke:none;fill-rule:nonzero;fill:rgb(81.960784%,66.27451%,46.666667%);fill-opacity:1;" d="M 76.730469 35.257812 L 76.730469 36.03125 L 77.503906 36.03125 L 77.503906 37.582031 L 76.730469 37.582031 L 76.730469 38.355469 L 78.660156 38.355469 L 78.660156 35.257812 Z M 76.730469 35.257812 "/>
<path style=" stroke:none;fill-rule:nonzero;fill:rgb(81.960784%,66.27451%,46.666667%);fill-opacity:1;" d="M 76.730469 50.367188 L 78.660156 50.367188 L 78.660156 53.464844 L 76.730469 53.464844 Z M 76.730469 50.367188 "/>
<path style=" stroke:none;fill-rule:nonzero;fill:rgb(81.960784%,66.27451%,46.666667%);fill-opacity:1;" d="M 76.730469 45.328125 L 76.730469 46.105469 L 77.503906 46.105469 L 77.503906 47.65625 L 76.730469 47.65625 L 76.730469 48.429688 L 78.660156 48.429688 L 78.660156 45.328125 Z M 76.730469 45.328125 "/>
<path style=" stroke:none;fill-rule:nonzero;fill:rgb(81.960784%,66.27451%,46.666667%);fill-opacity:1;" d="M 76.730469 60.441406 L 78.660156 60.441406 L 78.660156 63.539062 L 76.730469 63.539062 Z M 76.730469 60.441406 "/>
<path style=" stroke:none;fill-rule:nonzero;fill:rgb(81.960784%,66.27451%,46.666667%);fill-opacity:1;" d="M 76.730469 55.402344 L 76.730469 56.179688 L 77.503906 56.179688 L 77.503906 57.726562 L 76.730469 57.726562 L 76.730469 58.503906 L 78.660156 58.503906 L 78.660156 55.402344 Z M 76.730469 55.402344 "/>
<path style=" stroke:none;fill-rule:nonzero;fill:rgb(81.960784%,66.27451%,46.666667%);fill-opacity:1;" d="M 76.730469 70.511719 L 78.660156 70.511719 L 78.660156 73.613281 L 76.730469 73.613281 Z M 76.730469 70.511719 "/>
<path style=" stroke:none;fill-rule:nonzero;fill:rgb(81.960784%,66.27451%,46.666667%);fill-opacity:1;" d="M 76.730469 65.476562 L 76.730469 66.25 L 77.503906 66.25 L 77.503906 67.800781 L 76.730469 67.800781 L 76.730469 68.574219 L 78.660156 68.574219 L 78.660156 65.476562 Z M 76.730469 65.476562 "/>
<path style=" stroke:none;fill-rule:nonzero;fill:rgb(81.960784%,66.27451%,46.666667%);fill-opacity:1;" d="M 76.730469 80.585938 L 78.660156 80.585938 L 78.660156 83.6875 L 76.730469 83.6875 Z M 76.730469 80.585938 "/>
<path style=" stroke:none;fill-rule:nonzero;fill:rgb(81.960784%,66.27451%,46.666667%);fill-opacity:1;" d="M 76.730469 93.757812 L 78.660156 93.757812 L 78.660156 96.859375 L 76.730469 96.859375 Z M 76.730469 93.757812 "/>
<path style=" stroke:none;fill-rule:nonzero;fill:rgb(81.960784%,66.27451%,46.666667%);fill-opacity:1;" d="M 76.730469 75.550781 L 76.730469 76.324219 L 77.503906 76.324219 L 77.503906 77.875 L 76.730469 77.875 L 76.730469 78.648438 L 78.660156 78.648438 L 78.660156 75.550781 Z M 76.730469 75.550781 "/>
<path style=" stroke:none;fill-rule:nonzero;fill:rgb(81.960784%,66.27451%,46.666667%);fill-opacity:1;" d="M 76.730469 99.183594 L 76.730469 99.957031 L 77.503906 99.957031 L 77.503906 101.507812 L 76.730469 101.507812 L 76.730469 102.28125 L 78.660156 102.28125 L 78.660156 99.183594 Z M 76.730469 99.183594 "/>
<path style=" stroke:none;fill-rule:nonzero;fill:rgb(81.960784%,66.27451%,46.666667%);fill-opacity:1;" d="M 49.671875 93.757812 L 49.671875 94.535156 L 50.445312 94.535156 L 50.445312 96.082031 L 49.671875 96.082031 L 49.671875 96.859375 L 51.605469 96.859375 L 51.605469 93.757812 Z M 49.671875 93.757812 "/>
<path style=" stroke:none;fill-rule:nonzero;fill:rgb(81.960784%,66.27451%,46.666667%);fill-opacity:1;" d="M 49.671875 98.796875 L 49.671875 99.570312 L 50.445312 99.570312 L 50.445312 101.121094 L 49.671875 101.121094 L 49.671875 101.894531 L 51.605469 101.894531 L 51.605469 98.796875 Z M 49.671875 98.796875 "/>
<path style=" stroke:none;fill-rule:nonzero;fill:rgb(81.960784%,66.27451%,46.666667%);fill-opacity:1;" d="M 39.621094 40.292969 L 39.621094 41.066406 L 40.394531 41.066406 L 40.394531 42.617188 L 39.621094 42.617188 L 39.621094 43.394531 L 41.554688 43.394531 L 41.554688 40.292969 Z M 39.621094 40.292969 "/>
<path style=" stroke:none;fill-rule:nonzero;fill:rgb(81.960784%,66.27451%,46.666667%);fill-opacity:1;" d="M 39.621094 60.050781 L 39.621094 60.828125 L 40.394531 60.828125 L 40.394531 62.378906 L 39.621094 62.378906 L 39.621094 63.152344 L 41.554688 63.152344 L 41.554688 60.050781 Z M 39.621094 60.050781 "/>
<path style=" stroke:none;fill-rule:nonzero;fill:rgb(81.960784%,66.27451%,46.666667%);fill-opacity:1;" d="M 39.621094 65.089844 L 39.621094 65.863281 L 40.394531 65.863281 L 40.394531 67.414062 L 39.621094 67.414062 L 39.621094 68.1875 L 41.554688 68.1875 L 41.554688 65.089844 Z M 39.621094 65.089844 "/>
<path style=" stroke:none;fill-rule:nonzero;fill:rgb(81.960784%,66.27451%,46.666667%);fill-opacity:1;" d="M 39.621094 75.164062 L 39.621094 75.9375 L 40.394531 75.9375 L 40.394531 77.488281 L 39.621094 77.488281 L 39.621094 78.261719 L 41.554688 78.261719 L 41.554688 75.164062 Z M 39.621094 75.164062 "/>
<path style=" stroke:none;fill-rule:nonzero;fill:rgb(81.960784%,66.27451%,46.666667%);fill-opacity:1;" d="M 39.621094 89.496094 L 39.621094 90.273438 L 40.394531 90.273438 L 40.394531 91.820312 L 39.621094 91.820312 L 39.621094 92.597656 L 41.554688 92.597656 L 41.554688 89.496094 Z M 39.621094 89.496094 "/>
<path style=" stroke:none;fill-rule:nonzero;fill:rgb(81.960784%,66.27451%,46.666667%);fill-opacity:1;" d="M 39.621094 93.757812 L 39.621094 94.535156 L 40.394531 94.535156 L 40.394531 96.082031 L 39.621094 96.082031 L 39.621094 96.859375 L 41.554688 96.859375 L 41.554688 93.757812 Z M 39.621094 93.757812 "/>
<path style=" stroke:none;fill-rule:nonzero;fill:rgb(81.960784%,66.27451%,46.666667%);fill-opacity:1;" d="M 59.722656 16.660156 L 61.652344 16.660156 L 61.652344 19.757812 L 59.722656 19.757812 Z M 59.722656 16.660156 "/>
<path style=" stroke:none;fill-rule:nonzero;fill:rgb(81.960784%,66.27451%,46.666667%);fill-opacity:1;" d="M 59.722656 21.695312 L 61.652344 21.695312 L 61.652344 24.796875 L 59.722656 24.796875 Z M 59.722656 21.695312 "/>
<path style=" stroke:none;fill-rule:nonzero;fill:rgb(81.960784%,66.27451%,46.666667%);fill-opacity:1;" d="M 58.949219 27.121094 L 61.652344 27.121094 L 61.652344 27.507812 L 58.949219 27.507812 Z M 58.949219 27.121094 "/>
<path style=" stroke:none;fill-rule:nonzero;fill:rgb(81.960784%,66.27451%,46.666667%);fill-opacity:1;" d="M 58.949219 51.917969 L 61.652344 51.917969 L 61.652344 52.304688 L 58.949219 52.304688 Z M 58.949219 51.917969 "/>
<path style=" stroke:none;fill-rule:nonzero;fill:rgb(81.960784%,66.27451%,46.666667%);fill-opacity:1;" d="M 58.949219 56.179688 L 61.652344 56.179688 L 61.652344 56.566406 L 58.949219 56.566406 Z M 58.949219 56.179688 "/>
<path style=" stroke:none;fill-rule:nonzero;fill:rgb(81.960784%,66.27451%,46.666667%);fill-opacity:1;" d="M 59.722656 30.609375 L 59.722656 31.382812 L 60.492188 31.382812 L 60.492188 32.933594 L 59.722656 32.933594 L 59.722656 33.707031 L 61.652344 33.707031 L 61.652344 30.609375 Z M 59.722656 30.609375 "/>
<path style=" stroke:none;fill-rule:nonzero;fill:rgb(81.960784%,66.27451%,46.666667%);fill-opacity:1;" d="M 59.722656 40.292969 L 59.722656 41.066406 L 60.492188 41.066406 L 60.492188 42.617188 L 59.722656 42.617188 L 59.722656 43.394531 L 61.652344 43.394531 L 61.652344 40.292969 Z M 59.722656 40.292969 "/>
<path style=" stroke:none;fill-rule:nonzero;fill:rgb(81.960784%,66.27451%,46.666667%);fill-opacity:1;" d="M 59.722656 60.050781 L 59.722656 60.828125 L 60.492188 60.828125 L 60.492188 62.378906 L 59.722656 62.378906 L 59.722656 63.152344 L 61.652344 63.152344 L 61.652344 60.050781 Z M 59.722656 60.050781 "/>
<path style=" stroke:none;fill-rule:nonzero;fill:rgb(81.960784%,66.27451%,46.666667%);fill-opacity:1;" d="M 81.753906 50.367188 L 83.6875 50.367188 L 83.6875 53.464844 L 81.753906 53.464844 Z M 81.753906 50.367188 "/>
<path style=" stroke:none;fill-rule:nonzero;fill:rgb(81.960784%,66.27451%,46.666667%);fill-opacity:1;" d="M 81.753906 55.402344 L 83.6875 55.402344 L 83.6875 58.503906 L 81.753906 58.503906 Z M 81.753906 55.402344 "/>
<path style=" stroke:none;fill-rule:nonzero;fill:rgb(81.960784%,66.27451%,46.666667%);fill-opacity:1;" d="M 80.980469 60.828125 L 83.6875 60.828125 L 83.6875 61.214844 L 80.980469 61.214844 Z M 80.980469 60.828125 "/>
<path style=" stroke:none;fill-rule:nonzero;fill:rgb(81.960784%,66.27451%,46.666667%);fill-opacity:1;" d="M 80.980469 85.625 L 83.6875 85.625 L 83.6875 86.011719 L 80.980469 86.011719 Z M 80.980469 85.625 "/>
<path style=" stroke:none;fill-rule:nonzero;fill:rgb(81.960784%,66.27451%,46.666667%);fill-opacity:1;" d="M 80.980469 89.886719 L 83.6875 89.886719 L 83.6875 90.273438 L 80.980469 90.273438 Z M 80.980469 89.886719 "/>
<path style=" stroke:none;fill-rule:nonzero;fill:rgb(81.960784%,66.27451%,46.666667%);fill-opacity:1;" d="M 81.753906 64.3125 L 81.753906 65.089844 L 82.527344 65.089844 L 82.527344 66.640625 L 81.753906 66.640625 L 81.753906 67.414062 L 83.6875 67.414062 L 83.6875 64.3125 Z M 81.753906 64.3125 "/>
<path style=" stroke:none;fill-rule:nonzero;fill:rgb(81.960784%,66.27451%,46.666667%);fill-opacity:1;" d="M 81.753906 74 L 81.753906 74.773438 L 82.527344 74.773438 L 82.527344 76.324219 L 81.753906 76.324219 L 81.753906 77.097656 L 83.6875 77.097656 L 83.6875 74 Z M 81.753906 74 "/>
<path style=" stroke:none;fill-rule:nonzero;fill:rgb(81.960784%,66.27451%,46.666667%);fill-opacity:1;" d="M 81.753906 93.757812 L 81.753906 94.535156 L 82.527344 94.535156 L 82.527344 96.082031 L 81.753906 96.082031 L 81.753906 96.859375 L 83.6875 96.859375 L 83.6875 93.757812 Z M 81.753906 93.757812 "/>
<path style=" stroke:none;fill-rule:nonzero;fill:rgb(81.960784%,66.27451%,46.666667%);fill-opacity:1;" d="M 87.9375 16.660156 L 89.871094 16.660156 L 89.871094 19.757812 L 87.9375 19.757812 Z M 87.9375 16.660156 "/>
<path style=" stroke:none;fill-rule:nonzero;fill:rgb(81.960784%,66.27451%,46.666667%);fill-opacity:1;" d="M 94.507812 15.886719 L 96.441406 15.886719 L 96.441406 18.984375 L 94.507812 18.984375 Z M 94.507812 15.886719 "/>
<path style=" stroke:none;fill-rule:nonzero;fill:rgb(81.960784%,66.27451%,46.666667%);fill-opacity:1;" d="M 97.988281 15.886719 L 99.921875 15.886719 L 99.921875 18.984375 L 97.988281 18.984375 Z M 97.988281 15.886719 "/>
<path style=" stroke:none;fill-rule:nonzero;fill:rgb(81.960784%,66.27451%,46.666667%);fill-opacity:1;" d="M 97.988281 25.183594 L 99.921875 25.183594 L 99.921875 28.28125 L 97.988281 28.28125 Z M 97.988281 25.183594 "/>
<path style=" stroke:none;fill-rule:nonzero;fill:rgb(81.960784%,66.27451%,46.666667%);fill-opacity:1;" d="M 101.855469 20.535156 L 103.785156 20.535156 L 103.785156 23.632812 L 101.855469 23.632812 Z M 101.855469 20.535156 "/>
<path style=" stroke:none;fill-rule:nonzero;fill:rgb(81.960784%,66.27451%,46.666667%);fill-opacity:1;" d="M 101.855469 25.570312 L 103.785156 25.570312 L 103.785156 28.671875 L 101.855469 28.671875 Z M 101.855469 25.570312 "/>
<path style=" stroke:none;fill-rule:nonzero;fill:rgb(81.960784%,66.27451%,46.666667%);fill-opacity:1;" d="M 97.988281 35.257812 L 99.921875 35.257812 L 99.921875 38.355469 L 97.988281 38.355469 Z M 97.988281 35.257812 "/>
<path style=" stroke:none;fill-rule:nonzero;fill:rgb(81.960784%,66.27451%,46.666667%);fill-opacity:1;" d="M 101.855469 40.292969 L 103.785156 40.292969 L 103.785156 43.394531 L 101.855469 43.394531 Z M 101.855469 40.292969 "/>
<path style=" stroke:none;fill-rule:nonzero;fill:rgb(81.960784%,66.27451%,46.666667%);fill-opacity:1;" d="M 97.988281 59.277344 L 99.921875 59.277344 L 99.921875 62.378906 L 97.988281 62.378906 Z M 97.988281 59.277344 "/>
<path style=" stroke:none;fill-rule:nonzero;fill:rgb(81.960784%,66.27451%,46.666667%);fill-opacity:1;" d="M 94.507812 40.292969 L 96.441406 40.292969 L 96.441406 43.394531 L 94.507812 43.394531 Z M 94.507812 40.292969 "/>
<path style=" stroke:none;fill-rule:nonzero;fill:rgb(81.960784%,66.27451%,46.666667%);fill-opacity:1;" d="M 87.9375 21.695312 L 89.871094 21.695312 L 89.871094 24.796875 L 87.9375 24.796875 Z M 87.9375 21.695312 "/>
<path style=" stroke:none;fill-rule:nonzero;fill:rgb(81.960784%,66.27451%,46.666667%);fill-opacity:1;" d="M 87.9375 70.125 L 89.871094 70.125 L 89.871094 73.226562 L 87.9375 73.226562 Z M 87.9375 70.125 "/>
<path style=" stroke:none;fill-rule:nonzero;fill:rgb(81.960784%,66.27451%,46.666667%);fill-opacity:1;" d="M 87.9375 80.199219 L 89.871094 80.199219 L 89.871094 83.296875 L 87.9375 83.296875 Z M 87.9375 80.199219 "/>
<path style=" stroke:none;fill-rule:nonzero;fill:rgb(81.960784%,66.27451%,46.666667%);fill-opacity:1;" d="M 87.9375 85.234375 L 89.871094 85.234375 L 89.871094 88.335938 L 87.9375 88.335938 Z M 87.9375 85.234375 "/>
<path style=" stroke:none;fill-rule:nonzero;fill:rgb(81.960784%,66.27451%,46.666667%);fill-opacity:1;" d="M 87.164062 27.121094 L 89.871094 27.121094 L 89.871094 27.507812 L 87.164062 27.507812 Z M 87.164062 27.121094 "/>
<path style=" stroke:none;fill-rule:nonzero;fill:rgb(81.960784%,66.27451%,46.666667%);fill-opacity:1;" d="M 97.601562 31.769531 L 100.308594 31.769531 L 100.308594 32.15625 L 97.601562 32.15625 Z M 97.601562 31.769531 "/>
<path style=" stroke:none;fill-rule:nonzero;fill:rgb(81.960784%,66.27451%,46.666667%);fill-opacity:1;" d="M 87.164062 51.917969 L 89.871094 51.917969 L 89.871094 52.304688 L 87.164062 52.304688 Z M 87.164062 51.917969 "/>
<path style=" stroke:none;fill-rule:nonzero;fill:rgb(81.960784%,66.27451%,46.666667%);fill-opacity:1;" d="M 87.164062 56.179688 L 89.871094 56.179688 L 89.871094 56.566406 L 87.164062 56.566406 Z M 87.164062 56.179688 "/>
<path style=" stroke:none;fill-rule:nonzero;fill:rgb(81.960784%,66.27451%,46.666667%);fill-opacity:1;" d="M 97.601562 80.972656 L 100.308594 80.972656 L 100.308594 81.363281 L 97.601562 81.363281 Z M 97.601562 80.972656 "/>
<path style=" stroke:none;fill-rule:nonzero;fill:rgb(81.960784%,66.27451%,46.666667%);fill-opacity:1;" d="M 94.507812 90.273438 L 97.214844 90.273438 L 97.214844 90.660156 L 94.507812 90.660156 Z M 94.507812 90.273438 "/>
<path style=" stroke:none;fill-rule:nonzero;fill:rgb(81.960784%,66.27451%,46.666667%);fill-opacity:1;" d="M 87.9375 30.609375 L 87.9375 31.382812 L 88.710938 31.382812 L 88.710938 32.933594 L 87.9375 32.933594 L 87.9375 33.707031 L 89.871094 33.707031 L 89.871094 30.609375 Z M 87.9375 30.609375 "/>
<path style=" stroke:none;fill-rule:nonzero;fill:rgb(81.960784%,66.27451%,46.666667%);fill-opacity:1;" d="M 94.511719 25.183594 L 94.511719 25.957031 L 95.28125 25.957031 L 95.28125 27.507812 L 94.511719 27.507812 L 94.511719 28.28125 L 96.441406 28.28125 L 96.441406 25.183594 Z M 94.511719 25.183594 "/>
<path style=" stroke:none;fill-rule:nonzero;fill:rgb(81.960784%,66.27451%,46.666667%);fill-opacity:1;" d="M 101.855469 30.21875 L 101.855469 30.996094 L 102.628906 30.996094 L 102.628906 32.542969 L 101.855469 32.542969 L 101.855469 33.320312 L 103.785156 33.320312 L 103.785156 30.21875 Z M 101.855469 30.21875 "/>
<path style=" stroke:none;fill-rule:nonzero;fill:rgb(81.960784%,66.27451%,46.666667%);fill-opacity:1;" d="M 101.855469 45.328125 L 101.855469 46.105469 L 102.628906 46.105469 L 102.628906 47.65625 L 101.855469 47.65625 L 101.855469 48.429688 L 103.785156 48.429688 L 103.785156 45.328125 Z M 101.855469 45.328125 "/>
<path style=" stroke:none;fill-rule:nonzero;fill:rgb(81.960784%,66.27451%,46.666667%);fill-opacity:1;" d="M 101.855469 50.367188 L 101.855469 51.140625 L 102.628906 51.140625 L 102.628906 52.691406 L 101.855469 52.691406 L 101.855469 53.464844 L 103.785156 53.464844 L 103.785156 50.367188 Z M 101.855469 50.367188 "/>
<path style=" stroke:none;fill-rule:nonzero;fill:rgb(81.960784%,66.27451%,46.666667%);fill-opacity:1;" d="M 101.855469 34.871094 L 101.855469 35.644531 L 102.628906 35.644531 L 102.628906 37.195312 L 101.855469 37.195312 L 101.855469 37.96875 L 103.785156 37.96875 L 103.785156 34.871094 Z M 101.855469 34.871094 "/>
<path style=" stroke:none;fill-rule:nonzero;fill:rgb(81.960784%,66.27451%,46.666667%);fill-opacity:1;" d="M 97.988281 20.535156 L 97.988281 21.308594 L 98.761719 21.308594 L 98.761719 22.859375 L 97.988281 22.859375 L 97.988281 23.632812 L 99.921875 23.632812 L 99.921875 20.535156 Z M 97.988281 20.535156 "/>
<path style=" stroke:none;fill-rule:nonzero;fill:rgb(81.960784%,66.27451%,46.666667%);fill-opacity:1;" d="M 97.988281 45.328125 L 99.921875 45.328125 L 99.921875 48.429688 L 97.988281 48.429688 Z M 97.988281 45.328125 "/>
<path style=" stroke:none;fill-rule:nonzero;fill:rgb(81.960784%,66.27451%,46.666667%);fill-opacity:1;" d="M 97.988281 54.628906 L 99.921875 54.628906 L 99.921875 57.726562 L 97.988281 57.726562 Z M 97.988281 54.628906 "/>
<path style=" stroke:none;fill-rule:nonzero;fill:rgb(81.960784%,66.27451%,46.666667%);fill-opacity:1;" d="M 97.988281 49.980469 L 97.988281 50.753906 L 98.761719 50.753906 L 98.761719 52.304688 L 97.988281 52.304688 L 97.988281 53.078125 L 99.921875 53.078125 L 99.921875 49.980469 Z M 97.988281 49.980469 "/>
<path style=" stroke:none;fill-rule:nonzero;fill:rgb(81.960784%,66.27451%,46.666667%);fill-opacity:1;" d="M 94.511719 30.21875 L 94.511719 30.996094 L 95.28125 30.996094 L 95.28125 32.542969 L 94.511719 32.542969 L 94.511719 33.320312 L 96.441406 33.320312 L 96.441406 30.21875 Z M 94.511719 30.21875 "/>
<path style=" stroke:none;fill-rule:nonzero;fill:rgb(81.960784%,66.27451%,46.666667%);fill-opacity:1;" d="M 94.511719 35.257812 L 94.511719 36.03125 L 95.28125 36.03125 L 95.28125 37.582031 L 94.511719 37.582031 L 94.511719 38.355469 L 96.441406 38.355469 L 96.441406 35.257812 Z M 94.511719 35.257812 "/>
<path style=" stroke:none;fill-rule:nonzero;fill:rgb(81.960784%,66.27451%,46.666667%);fill-opacity:1;" d="M 94.507812 50.367188 L 96.441406 50.367188 L 96.441406 53.464844 L 94.507812 53.464844 Z M 94.507812 50.367188 "/>
<path style=" stroke:none;fill-rule:nonzero;fill:rgb(81.960784%,66.27451%,46.666667%);fill-opacity:1;" d="M 94.511719 45.328125 L 94.511719 46.105469 L 95.28125 46.105469 L 95.28125 47.65625 L 94.511719 47.65625 L 94.511719 48.429688 L 96.441406 48.429688 L 96.441406 45.328125 Z M 94.511719 45.328125 "/>
<path style=" stroke:none;fill-rule:nonzero;fill:rgb(81.960784%,66.27451%,46.666667%);fill-opacity:1;" d="M 94.507812 60.441406 L 96.441406 60.441406 L 96.441406 63.539062 L 94.507812 63.539062 Z M 94.507812 60.441406 "/>
<path style=" stroke:none;fill-rule:nonzero;fill:rgb(81.960784%,66.27451%,46.666667%);fill-opacity:1;" d="M 94.511719 55.402344 L 94.511719 56.179688 L 95.28125 56.179688 L 95.28125 57.726562 L 94.511719 57.726562 L 94.511719 58.503906 L 96.441406 58.503906 L 96.441406 55.402344 Z M 94.511719 55.402344 "/>
<path style=" stroke:none;fill-rule:nonzero;fill:rgb(81.960784%,66.27451%,46.666667%);fill-opacity:1;" d="M 94.507812 70.511719 L 96.441406 70.511719 L 96.441406 73.613281 L 94.507812 73.613281 Z M 94.507812 70.511719 "/>
<path style=" stroke:none;fill-rule:nonzero;fill:rgb(81.960784%,66.27451%,46.666667%);fill-opacity:1;" d="M 97.988281 69.738281 L 99.921875 69.738281 L 99.921875 72.835938 L 97.988281 72.835938 Z M 97.988281 69.738281 "/>
<path style=" stroke:none;fill-rule:nonzero;fill:rgb(81.960784%,66.27451%,46.666667%);fill-opacity:1;" d="M 94.511719 65.476562 L 94.511719 66.25 L 95.28125 66.25 L 95.28125 67.800781 L 94.511719 67.800781 L 94.511719 68.574219 L 96.441406 68.574219 L 96.441406 65.476562 Z M 94.511719 65.476562 "/>
<path style=" stroke:none;fill-rule:nonzero;fill:rgb(81.960784%,66.27451%,46.666667%);fill-opacity:1;" d="M 101.855469 65.476562 L 101.855469 66.25 L 102.628906 66.25 L 102.628906 67.800781 L 101.855469 67.800781 L 101.855469 68.574219 L 103.785156 68.574219 L 103.785156 65.476562 Z M 101.855469 65.476562 "/>
<path style=" stroke:none;fill-rule:nonzero;fill:rgb(81.960784%,66.27451%,46.666667%);fill-opacity:1;" d="M 121.566406 20.535156 L 123.5 20.535156 L 123.5 23.632812 L 121.566406 23.632812 Z M 121.566406 20.535156 "/>
<path style=" stroke:none;fill-rule:nonzero;fill:rgb(81.960784%,66.27451%,46.666667%);fill-opacity:1;" d="M 121.566406 25.570312 L 123.5 25.570312 L 123.5 28.671875 L 121.566406 28.671875 Z M 121.566406 25.570312 "/>
<path style=" stroke:none;fill-rule:nonzero;fill:rgb(81.960784%,66.27451%,46.666667%);fill-opacity:1;" d="M 121.566406 40.292969 L 123.5 40.292969 L 123.5 43.394531 L 121.566406 43.394531 Z M 121.566406 40.292969 "/>
<path style=" stroke:none;fill-rule:nonzero;fill:rgb(81.960784%,66.27451%,46.666667%);fill-opacity:1;" d="M 121.566406 30.21875 L 121.566406 30.996094 L 122.339844 30.996094 L 122.339844 32.542969 L 121.566406 32.542969 L 121.566406 33.320312 L 123.5 33.320312 L 123.5 30.21875 Z M 121.566406 30.21875 "/>
<path style=" stroke:none;fill-rule:nonzero;fill:rgb(81.960784%,66.27451%,46.666667%);fill-opacity:1;" d="M 121.566406 45.328125 L 121.566406 46.105469 L 122.339844 46.105469 L 122.339844 47.65625 L 121.566406 47.65625 L 121.566406 48.429688 L 123.5 48.429688 L 123.5 45.328125 Z M 121.566406 45.328125 "/>
<path style=" stroke:none;fill-rule:nonzero;fill:rgb(81.960784%,66.27451%,46.666667%);fill-opacity:1;" d="M 121.566406 50.367188 L 121.566406 51.140625 L 122.339844 51.140625 L 122.339844 52.691406 L 121.566406 52.691406 L 121.566406 53.464844 L 123.5 53.464844 L 123.5 50.367188 Z M 121.566406 50.367188 "/>
<path style=" stroke:none;fill-rule:nonzero;fill:rgb(81.960784%,66.27451%,46.666667%);fill-opacity:1;" d="M 121.566406 34.871094 L 121.566406 35.644531 L 122.339844 35.644531 L 122.339844 37.195312 L 121.566406 37.195312 L 121.566406 37.96875 L 123.5 37.96875 L 123.5 34.871094 Z M 121.566406 34.871094 "/>
<path style=" stroke:none;fill-rule:nonzero;fill:rgb(81.960784%,66.27451%,46.666667%);fill-opacity:1;" d="M 121.566406 65.476562 L 121.566406 66.25 L 122.339844 66.25 L 122.339844 67.800781 L 121.566406 67.800781 L 121.566406 68.574219 L 123.5 68.574219 L 123.5 65.476562 Z M 121.566406 65.476562 "/>
<path style=" stroke:none;fill-rule:nonzero;fill:rgb(81.960784%,66.27451%,46.666667%);fill-opacity:1;" d="M 94.507812 80.585938 L 96.441406 80.585938 L 96.441406 83.6875 L 94.507812 83.6875 Z M 94.507812 80.585938 "/>
<path style=" stroke:none;fill-rule:nonzero;fill:rgb(81.960784%,66.27451%,46.666667%);fill-opacity:1;" d="M 97.988281 74.773438 L 99.921875 74.773438 L 99.921875 77.875 L 97.988281 77.875 Z M 97.988281 74.773438 "/>
<path style=" stroke:none;fill-rule:nonzero;fill:rgb(81.960784%,66.27451%,46.666667%);fill-opacity:1;" d="M 94.507812 93.757812 L 96.441406 93.757812 L 96.441406 96.859375 L 94.507812 96.859375 Z M 94.507812 93.757812 "/>
<path style=" stroke:none;fill-rule:nonzero;fill:rgb(81.960784%,66.27451%,46.666667%);fill-opacity:1;" d="M 97.988281 84.460938 L 99.921875 84.460938 L 99.921875 87.558594 L 97.988281 87.558594 Z M 97.988281 84.460938 "/>
<path style=" stroke:none;fill-rule:nonzero;fill:rgb(81.960784%,66.27451%,46.666667%);fill-opacity:1;" d="M 94.511719 75.550781 L 94.511719 76.324219 L 95.28125 76.324219 L 95.28125 77.875 L 94.511719 77.875 L 94.511719 78.648438 L 96.441406 78.648438 L 96.441406 75.550781 Z M 94.511719 75.550781 "/>
<path style=" stroke:none;fill-rule:nonzero;fill:rgb(81.960784%,66.27451%,46.666667%);fill-opacity:1;" d="M 94.511719 99.183594 L 94.511719 99.957031 L 95.28125 99.957031 L 95.28125 101.507812 L 94.511719 101.507812 L 94.511719 102.28125 L 96.441406 102.28125 L 96.441406 99.183594 Z M 94.511719 99.183594 "/>
<path style=" stroke:none;fill-rule:nonzero;fill:rgb(81.960784%,66.27451%,46.666667%);fill-opacity:1;" d="M 115.769531 15.886719 L 117.703125 15.886719 L 117.703125 18.984375 L 115.769531 18.984375 Z M 115.769531 15.886719 "/>
<path style=" stroke:none;fill-rule:nonzero;fill:rgb(81.960784%,66.27451%,46.666667%);fill-opacity:1;" d="M 115.769531 40.292969 L 117.703125 40.292969 L 117.703125 43.394531 L 115.769531 43.394531 Z M 115.769531 40.292969 "/>
<path style=" stroke:none;fill-rule:nonzero;fill:rgb(81.960784%,66.27451%,46.666667%);fill-opacity:1;" d="M 115.769531 90.273438 L 118.476562 90.273438 L 118.476562 90.660156 L 115.769531 90.660156 Z M 115.769531 90.273438 "/>
<path style=" stroke:none;fill-rule:nonzero;fill:rgb(81.960784%,66.27451%,46.666667%);fill-opacity:1;" d="M 115.769531 25.183594 L 115.769531 25.957031 L 116.542969 25.957031 L 116.542969 27.507812 L 115.769531 27.507812 L 115.769531 28.28125 L 117.703125 28.28125 L 117.703125 25.183594 Z M 115.769531 25.183594 "/>
<path style=" stroke:none;fill-rule:nonzero;fill:rgb(81.960784%,66.27451%,46.666667%);fill-opacity:1;" d="M 115.769531 30.21875 L 115.769531 30.996094 L 116.542969 30.996094 L 116.542969 32.542969 L 115.769531 32.542969 L 115.769531 33.320312 L 117.703125 33.320312 L 117.703125 30.21875 Z M 115.769531 30.21875 "/>
<path style=" stroke:none;fill-rule:nonzero;fill:rgb(81.960784%,66.27451%,46.666667%);fill-opacity:1;" d="M 115.769531 35.257812 L 115.769531 36.03125 L 116.542969 36.03125 L 116.542969 37.582031 L 115.769531 37.582031 L 115.769531 38.355469 L 117.703125 38.355469 L 117.703125 35.257812 Z M 115.769531 35.257812 "/>
<path style=" stroke:none;fill-rule:nonzero;fill:rgb(81.960784%,66.27451%,46.666667%);fill-opacity:1;" d="M 115.769531 50.367188 L 117.703125 50.367188 L 117.703125 53.464844 L 115.769531 53.464844 Z M 115.769531 50.367188 "/>
<path style=" stroke:none;fill-rule:nonzero;fill:rgb(81.960784%,66.27451%,46.666667%);fill-opacity:1;" d="M 115.769531 45.328125 L 115.769531 46.105469 L 116.542969 46.105469 L 116.542969 47.65625 L 115.769531 47.65625 L 115.769531 48.429688 L 117.703125 48.429688 L 117.703125 45.328125 Z M 115.769531 45.328125 "/>
<path style=" stroke:none;fill-rule:nonzero;fill:rgb(81.960784%,66.27451%,46.666667%);fill-opacity:1;" d="M 115.769531 60.441406 L 117.703125 60.441406 L 117.703125 63.539062 L 115.769531 63.539062 Z M 115.769531 60.441406 "/>
<path style=" stroke:none;fill-rule:nonzero;fill:rgb(81.960784%,66.27451%,46.666667%);fill-opacity:1;" d="M 115.769531 55.402344 L 115.769531 56.179688 L 116.542969 56.179688 L 116.542969 57.726562 L 115.769531 57.726562 L 115.769531 58.503906 L 117.703125 58.503906 L 117.703125 55.402344 Z M 115.769531 55.402344 "/>
<path style=" stroke:none;fill-rule:nonzero;fill:rgb(81.960784%,66.27451%,46.666667%);fill-opacity:1;" d="M 115.769531 70.511719 L 117.703125 70.511719 L 117.703125 73.613281 L 115.769531 73.613281 Z M 115.769531 70.511719 "/>
<path style=" stroke:none;fill-rule:nonzero;fill:rgb(81.960784%,66.27451%,46.666667%);fill-opacity:1;" d="M 115.769531 65.476562 L 115.769531 66.25 L 116.542969 66.25 L 116.542969 67.800781 L 115.769531 67.800781 L 115.769531 68.574219 L 117.703125 68.574219 L 117.703125 65.476562 Z M 115.769531 65.476562 "/>
<path style=" stroke:none;fill-rule:nonzero;fill:rgb(81.960784%,66.27451%,46.666667%);fill-opacity:1;" d="M 115.769531 80.585938 L 117.703125 80.585938 L 117.703125 83.6875 L 115.769531 83.6875 Z M 115.769531 80.585938 "/>
<path style=" stroke:none;fill-rule:nonzero;fill:rgb(81.960784%,66.27451%,46.666667%);fill-opacity:1;" d="M 115.769531 93.757812 L 117.703125 93.757812 L 117.703125 96.859375 L 115.769531 96.859375 Z M 115.769531 93.757812 "/>
<path style=" stroke:none;fill-rule:nonzero;fill:rgb(81.960784%,66.27451%,46.666667%);fill-opacity:1;" d="M 115.769531 75.550781 L 115.769531 76.324219 L 116.542969 76.324219 L 116.542969 77.875 L 115.769531 77.875 L 115.769531 78.648438 L 117.703125 78.648438 L 117.703125 75.550781 Z M 115.769531 75.550781 "/>
<path style=" stroke:none;fill-rule:nonzero;fill:rgb(81.960784%,66.27451%,46.666667%);fill-opacity:1;" d="M 115.769531 99.183594 L 115.769531 99.957031 L 116.542969 99.957031 L 116.542969 101.507812 L 115.769531 101.507812 L 115.769531 102.28125 L 117.703125 102.28125 L 117.703125 99.183594 Z M 115.769531 99.183594 "/>
<path style=" stroke:none;fill-rule:nonzero;fill:rgb(81.960784%,66.27451%,46.666667%);fill-opacity:1;" d="M 125.046875 15.886719 L 126.980469 15.886719 L 126.980469 18.984375 L 125.046875 18.984375 Z M 125.046875 15.886719 "/>
<path style=" stroke:none;fill-rule:nonzero;fill:rgb(81.960784%,66.27451%,46.666667%);fill-opacity:1;" d="M 125.046875 40.292969 L 126.980469 40.292969 L 126.980469 43.394531 L 125.046875 43.394531 Z M 125.046875 40.292969 "/>
<path style=" stroke:none;fill-rule:nonzero;fill:rgb(81.960784%,66.27451%,46.666667%);fill-opacity:1;" d="M 125.046875 90.273438 L 127.753906 90.273438 L 127.753906 90.660156 L 125.046875 90.660156 Z M 125.046875 90.273438 "/>
<path style=" stroke:none;fill-rule:nonzero;fill:rgb(81.960784%,66.27451%,46.666667%);fill-opacity:1;" d="M 125.046875 25.183594 L 125.046875 25.957031 L 125.820312 25.957031 L 125.820312 27.507812 L 125.046875 27.507812 L 125.046875 28.28125 L 126.980469 28.28125 L 126.980469 25.183594 Z M 125.046875 25.183594 "/>
<path style=" stroke:none;fill-rule:nonzero;fill:rgb(81.960784%,66.27451%,46.666667%);fill-opacity:1;" d="M 125.046875 30.21875 L 125.046875 30.996094 L 125.820312 30.996094 L 125.820312 32.542969 L 125.046875 32.542969 L 125.046875 33.320312 L 126.980469 33.320312 L 126.980469 30.21875 Z M 125.046875 30.21875 "/>
<path style=" stroke:none;fill-rule:nonzero;fill:rgb(81.960784%,66.27451%,46.666667%);fill-opacity:1;" d="M 125.046875 35.257812 L 125.046875 36.03125 L 125.820312 36.03125 L 125.820312 37.582031 L 125.046875 37.582031 L 125.046875 38.355469 L 126.980469 38.355469 L 126.980469 35.257812 Z M 125.046875 35.257812 "/>
<path style=" stroke:none;fill-rule:nonzero;fill:rgb(81.960784%,66.27451%,46.666667%);fill-opacity:1;" d="M 125.046875 50.367188 L 126.980469 50.367188 L 126.980469 53.464844 L 125.046875 53.464844 Z M 125.046875 50.367188 "/>
<path style=" stroke:none;fill-rule:nonzero;fill:rgb(81.960784%,66.27451%,46.666667%);fill-opacity:1;" d="M 125.046875 45.328125 L 125.046875 46.105469 L 125.820312 46.105469 L 125.820312 47.65625 L 125.046875 47.65625 L 125.046875 48.429688 L 126.980469 48.429688 L 126.980469 45.328125 Z M 125.046875 45.328125 "/>
<path style=" stroke:none;fill-rule:nonzero;fill:rgb(81.960784%,66.27451%,46.666667%);fill-opacity:1;" d="M 125.046875 60.441406 L 126.980469 60.441406 L 126.980469 63.539062 L 125.046875 63.539062 Z M 125.046875 60.441406 "/>
<path style=" stroke:none;fill-rule:nonzero;fill:rgb(81.960784%,66.27451%,46.666667%);fill-opacity:1;" d="M 125.046875 55.402344 L 125.046875 56.179688 L 125.820312 56.179688 L 125.820312 57.726562 L 125.046875 57.726562 L 125.046875 58.503906 L 126.980469 58.503906 L 126.980469 55.402344 Z M 125.046875 55.402344 "/>
<path style=" stroke:none;fill-rule:nonzero;fill:rgb(81.960784%,66.27451%,46.666667%);fill-opacity:1;" d="M 125.046875 70.511719 L 126.980469 70.511719 L 126.980469 73.613281 L 125.046875 73.613281 Z M 125.046875 70.511719 "/>
<path style=" stroke:none;fill-rule:nonzero;fill:rgb(81.960784%,66.27451%,46.666667%);fill-opacity:1;" d="M 125.046875 65.476562 L 125.046875 66.25 L 125.820312 66.25 L 125.820312 67.800781 L 125.046875 67.800781 L 125.046875 68.574219 L 126.980469 68.574219 L 126.980469 65.476562 Z M 125.046875 65.476562 "/>
<path style=" stroke:none;fill-rule:nonzero;fill:rgb(81.960784%,66.27451%,46.666667%);fill-opacity:1;" d="M 125.046875 80.585938 L 126.980469 80.585938 L 126.980469 83.6875 L 125.046875 83.6875 Z M 125.046875 80.585938 "/>
<path style=" stroke:none;fill-rule:nonzero;fill:rgb(81.960784%,66.27451%,46.666667%);fill-opacity:1;" d="M 125.046875 93.757812 L 126.980469 93.757812 L 126.980469 96.859375 L 125.046875 96.859375 Z M 125.046875 93.757812 "/>
<path style=" stroke:none;fill-rule:nonzero;fill:rgb(81.960784%,66.27451%,46.666667%);fill-opacity:1;" d="M 125.046875 75.550781 L 125.046875 76.324219 L 125.820312 76.324219 L 125.820312 77.875 L 125.046875 77.875 L 125.046875 78.648438 L 126.980469 78.648438 L 126.980469 75.550781 Z M 125.046875 75.550781 "/>
<path style=" stroke:none;fill-rule:nonzero;fill:rgb(81.960784%,66.27451%,46.666667%);fill-opacity:1;" d="M 125.046875 99.183594 L 125.046875 99.957031 L 125.820312 99.957031 L 125.820312 101.507812 L 125.046875 101.507812 L 125.046875 102.28125 L 126.980469 102.28125 L 126.980469 99.183594 Z M 125.046875 99.183594 "/>
<path style=" stroke:none;fill-rule:nonzero;fill:rgb(81.960784%,66.27451%,46.666667%);fill-opacity:1;" d="M 97.988281 93.757812 L 97.988281 94.535156 L 98.761719 94.535156 L 98.761719 96.082031 L 97.988281 96.082031 L 97.988281 96.859375 L 99.921875 96.859375 L 99.921875 93.757812 Z M 97.988281 93.757812 "/>
<path style=" stroke:none;fill-rule:nonzero;fill:rgb(81.960784%,66.27451%,46.666667%);fill-opacity:1;" d="M 97.988281 98.796875 L 97.988281 99.570312 L 98.761719 99.570312 L 98.761719 101.121094 L 97.988281 101.121094 L 97.988281 101.894531 L 99.921875 101.894531 L 99.921875 98.796875 Z M 97.988281 98.796875 "/>
<path style=" stroke:none;fill-rule:nonzero;fill:rgb(81.960784%,66.27451%,46.666667%);fill-opacity:1;" d="M 87.9375 40.292969 L 87.9375 41.066406 L 88.710938 41.066406 L 88.710938 42.617188 L 87.9375 42.617188 L 87.9375 43.394531 L 89.871094 43.394531 L 89.871094 40.292969 Z M 87.9375 40.292969 "/>
<path style=" stroke:none;fill-rule:nonzero;fill:rgb(81.960784%,66.27451%,46.666667%);fill-opacity:1;" d="M 87.9375 60.050781 L 87.9375 60.828125 L 88.710938 60.828125 L 88.710938 62.378906 L 87.9375 62.378906 L 87.9375 63.152344 L 89.871094 63.152344 L 89.871094 60.050781 Z M 87.9375 60.050781 "/>
<path style=" stroke:none;fill-rule:nonzero;fill:rgb(81.960784%,66.27451%,46.666667%);fill-opacity:1;" d="M 87.9375 65.089844 L 87.9375 65.863281 L 88.710938 65.863281 L 88.710938 67.414062 L 87.9375 67.414062 L 87.9375 68.1875 L 89.871094 68.1875 L 89.871094 65.089844 Z M 87.9375 65.089844 "/>
<path style=" stroke:none;fill-rule:nonzero;fill:rgb(81.960784%,66.27451%,46.666667%);fill-opacity:1;" d="M 87.9375 75.164062 L 87.9375 75.9375 L 88.710938 75.9375 L 88.710938 77.488281 L 87.9375 77.488281 L 87.9375 78.261719 L 89.871094 78.261719 L 89.871094 75.164062 Z M 87.9375 75.164062 "/>
<path style=" stroke:none;fill-rule:nonzero;fill:rgb(81.960784%,66.27451%,46.666667%);fill-opacity:1;" d="M 87.9375 89.496094 L 87.9375 90.273438 L 88.710938 90.273438 L 88.710938 91.820312 L 87.9375 91.820312 L 87.9375 92.597656 L 89.871094 92.597656 L 89.871094 89.496094 Z M 87.9375 89.496094 "/>
<path style=" stroke:none;fill-rule:nonzero;fill:rgb(81.960784%,66.27451%,46.666667%);fill-opacity:1;" d="M 87.9375 93.757812 L 87.9375 94.535156 L 88.710938 94.535156 L 88.710938 96.082031 L 87.9375 96.082031 L 87.9375 96.859375 L 89.871094 96.859375 L 89.871094 93.757812 Z M 87.9375 93.757812 "/>
<path style=" stroke:none;fill-rule:nonzero;fill:rgb(81.960784%,66.27451%,46.666667%);fill-opacity:1;" d="M 108.039062 16.660156 L 109.972656 16.660156 L 109.972656 19.757812 L 108.039062 19.757812 Z M 108.039062 16.660156 "/>
<path style=" stroke:none;fill-rule:nonzero;fill:rgb(81.960784%,66.27451%,46.666667%);fill-opacity:1;" d="M 108.039062 21.695312 L 109.972656 21.695312 L 109.972656 24.796875 L 108.039062 24.796875 Z M 108.039062 21.695312 "/>
<path style=" stroke:none;fill-rule:nonzero;fill:rgb(81.960784%,66.27451%,46.666667%);fill-opacity:1;" d="M 107.265625 27.121094 L 109.972656 27.121094 L 109.972656 27.507812 L 107.265625 27.507812 Z M 107.265625 27.121094 "/>
<path style=" stroke:none;fill-rule:nonzero;fill:rgb(81.960784%,66.27451%,46.666667%);fill-opacity:1;" d="M 107.265625 51.917969 L 109.972656 51.917969 L 109.972656 52.304688 L 107.265625 52.304688 Z M 107.265625 51.917969 "/>
<path style=" stroke:none;fill-rule:nonzero;fill:rgb(81.960784%,66.27451%,46.666667%);fill-opacity:1;" d="M 107.265625 56.179688 L 109.972656 56.179688 L 109.972656 56.566406 L 107.265625 56.566406 Z M 107.265625 56.179688 "/>
<path style=" stroke:none;fill-rule:nonzero;fill:rgb(81.960784%,66.27451%,46.666667%);fill-opacity:1;" d="M 108.039062 30.609375 L 108.039062 31.382812 L 108.8125 31.382812 L 108.8125 32.933594 L 108.039062 32.933594 L 108.039062 33.707031 L 109.972656 33.707031 L 109.972656 30.609375 Z M 108.039062 30.609375 "/>
<path style=" stroke:none;fill-rule:nonzero;fill:rgb(81.960784%,66.27451%,46.666667%);fill-opacity:1;" d="M 108.039062 40.292969 L 108.039062 41.066406 L 108.8125 41.066406 L 108.8125 42.617188 L 108.039062 42.617188 L 108.039062 43.394531 L 109.972656 43.394531 L 109.972656 40.292969 Z M 108.039062 40.292969 "/>
<path style=" stroke:none;fill-rule:nonzero;fill:rgb(81.960784%,66.27451%,46.666667%);fill-opacity:1;" d="M 108.039062 60.050781 L 108.039062 60.828125 L 108.8125 60.828125 L 108.8125 62.378906 L 108.039062 62.378906 L 108.039062 63.152344 L 109.972656 63.152344 L 109.972656 60.050781 Z M 108.039062 60.050781 "/>
<path style=" stroke:none;fill-rule:nonzero;fill:rgb(81.960784%,66.27451%,46.666667%);fill-opacity:1;" d="M 130.070312 50.367188 L 132.003906 50.367188 L 132.003906 53.464844 L 130.070312 53.464844 Z M 130.070312 50.367188 "/>
<path style=" stroke:none;fill-rule:nonzero;fill:rgb(81.960784%,66.27451%,46.666667%);fill-opacity:1;" d="M 130.070312 55.402344 L 132.003906 55.402344 L 132.003906 58.503906 L 130.070312 58.503906 Z M 130.070312 55.402344 "/>
<path style=" stroke:none;fill-rule:nonzero;fill:rgb(81.960784%,66.27451%,46.666667%);fill-opacity:1;" d="M 129.296875 60.828125 L 132.003906 60.828125 L 132.003906 61.214844 L 129.296875 61.214844 Z M 129.296875 60.828125 "/>
<path style=" stroke:none;fill-rule:nonzero;fill:rgb(81.960784%,66.27451%,46.666667%);fill-opacity:1;" d="M 129.296875 85.625 L 132.003906 85.625 L 132.003906 86.011719 L 129.296875 86.011719 Z M 129.296875 85.625 "/>
<path style=" stroke:none;fill-rule:nonzero;fill:rgb(81.960784%,66.27451%,46.666667%);fill-opacity:1;" d="M 129.296875 89.886719 L 132.003906 89.886719 L 132.003906 90.273438 L 129.296875 90.273438 Z M 129.296875 89.886719 "/>
<path style=" stroke:none;fill-rule:nonzero;fill:rgb(81.960784%,66.27451%,46.666667%);fill-opacity:1;" d="M 130.070312 64.3125 L 130.070312 65.089844 L 130.84375 65.089844 L 130.84375 66.640625 L 130.070312 66.640625 L 130.070312 67.414062 L 132.003906 67.414062 L 132.003906 64.3125 Z M 130.070312 64.3125 "/>
<path style=" stroke:none;fill-rule:nonzero;fill:rgb(81.960784%,66.27451%,46.666667%);fill-opacity:1;" d="M 130.070312 74 L 130.070312 74.773438 L 130.84375 74.773438 L 130.84375 76.324219 L 130.070312 76.324219 L 130.070312 77.097656 L 132.003906 77.097656 L 132.003906 74 Z M 130.070312 74 "/>
<path style=" stroke:none;fill-rule:nonzero;fill:rgb(81.960784%,66.27451%,46.666667%);fill-opacity:1;" d="M 130.070312 93.757812 L 130.070312 94.535156 L 130.84375 94.535156 L 130.84375 96.082031 L 130.070312 96.082031 L 130.070312 96.859375 L 132.003906 96.859375 L 132.003906 93.757812 Z M 130.070312 93.757812 "/>
<path style=" stroke:none;fill-rule:nonzero;fill:rgb(81.960784%,66.27451%,46.666667%);fill-opacity:1;" d="M 136.257812 16.660156 L 138.1875 16.660156 L 138.1875 19.757812 L 136.257812 19.757812 Z M 136.257812 16.660156 "/>
<path style=" stroke:none;fill-rule:nonzero;fill:rgb(81.960784%,66.27451%,46.666667%);fill-opacity:1;" d="M 142.828125 15.886719 L 144.761719 15.886719 L 144.761719 18.984375 L 142.828125 18.984375 Z M 142.828125 15.886719 "/>
<path style=" stroke:none;fill-rule:nonzero;fill:rgb(81.960784%,66.27451%,46.666667%);fill-opacity:1;" d="M 146.304688 15.886719 L 148.238281 15.886719 L 148.238281 18.984375 L 146.304688 18.984375 Z M 146.304688 15.886719 "/>
<path style=" stroke:none;fill-rule:nonzero;fill:rgb(81.960784%,66.27451%,46.666667%);fill-opacity:1;" d="M 146.304688 25.183594 L 148.238281 25.183594 L 148.238281 28.28125 L 146.304688 28.28125 Z M 146.304688 25.183594 "/>
<path style=" stroke:none;fill-rule:nonzero;fill:rgb(81.960784%,66.27451%,46.666667%);fill-opacity:1;" d="M 150.171875 20.535156 L 152.105469 20.535156 L 152.105469 23.632812 L 150.171875 23.632812 Z M 150.171875 20.535156 "/>
<path style=" stroke:none;fill-rule:nonzero;fill:rgb(81.960784%,66.27451%,46.666667%);fill-opacity:1;" d="M 150.171875 25.570312 L 152.105469 25.570312 L 152.105469 28.671875 L 150.171875 28.671875 Z M 150.171875 25.570312 "/>
<path style=" stroke:none;fill-rule:nonzero;fill:rgb(81.960784%,66.27451%,46.666667%);fill-opacity:1;" d="M 146.304688 35.257812 L 148.238281 35.257812 L 148.238281 38.355469 L 146.304688 38.355469 Z M 146.304688 35.257812 "/>
<path style=" stroke:none;fill-rule:nonzero;fill:rgb(81.960784%,66.27451%,46.666667%);fill-opacity:1;" d="M 150.171875 40.292969 L 152.105469 40.292969 L 152.105469 43.394531 L 150.171875 43.394531 Z M 150.171875 40.292969 "/>
<path style=" stroke:none;fill-rule:nonzero;fill:rgb(81.960784%,66.27451%,46.666667%);fill-opacity:1;" d="M 146.304688 59.277344 L 148.238281 59.277344 L 148.238281 62.378906 L 146.304688 62.378906 Z M 146.304688 59.277344 "/>
<path style=" stroke:none;fill-rule:nonzero;fill:rgb(81.960784%,66.27451%,46.666667%);fill-opacity:1;" d="M 142.828125 40.292969 L 144.761719 40.292969 L 144.761719 43.394531 L 142.828125 43.394531 Z M 142.828125 40.292969 "/>
<path style=" stroke:none;fill-rule:nonzero;fill:rgb(81.960784%,66.27451%,46.666667%);fill-opacity:1;" d="M 136.257812 21.695312 L 138.1875 21.695312 L 138.1875 24.796875 L 136.257812 24.796875 Z M 136.257812 21.695312 "/>
<path style=" stroke:none;fill-rule:nonzero;fill:rgb(81.960784%,66.27451%,46.666667%);fill-opacity:1;" d="M 136.257812 70.125 L 138.1875 70.125 L 138.1875 73.226562 L 136.257812 73.226562 Z M 136.257812 70.125 "/>
<path style=" stroke:none;fill-rule:nonzero;fill:rgb(81.960784%,66.27451%,46.666667%);fill-opacity:1;" d="M 136.257812 80.199219 L 138.1875 80.199219 L 138.1875 83.296875 L 136.257812 83.296875 Z M 136.257812 80.199219 "/>
<path style=" stroke:none;fill-rule:nonzero;fill:rgb(81.960784%,66.27451%,46.666667%);fill-opacity:1;" d="M 136.257812 85.234375 L 138.1875 85.234375 L 138.1875 88.335938 L 136.257812 88.335938 Z M 136.257812 85.234375 "/>
<path style=" stroke:none;fill-rule:nonzero;fill:rgb(81.960784%,66.27451%,46.666667%);fill-opacity:1;" d="M 135.484375 27.121094 L 138.1875 27.121094 L 138.1875 27.507812 L 135.484375 27.507812 Z M 135.484375 27.121094 "/>
<path style=" stroke:none;fill-rule:nonzero;fill:rgb(81.960784%,66.27451%,46.666667%);fill-opacity:1;" d="M 145.921875 31.769531 L 148.625 31.769531 L 148.625 32.15625 L 145.921875 32.15625 Z M 145.921875 31.769531 "/>
<path style=" stroke:none;fill-rule:nonzero;fill:rgb(81.960784%,66.27451%,46.666667%);fill-opacity:1;" d="M 135.484375 51.917969 L 138.1875 51.917969 L 138.1875 52.304688 L 135.484375 52.304688 Z M 135.484375 51.917969 "/>
<path style=" stroke:none;fill-rule:nonzero;fill:rgb(81.960784%,66.27451%,46.666667%);fill-opacity:1;" d="M 135.484375 56.179688 L 138.1875 56.179688 L 138.1875 56.566406 L 135.484375 56.566406 Z M 135.484375 56.179688 "/>
<path style=" stroke:none;fill-rule:nonzero;fill:rgb(81.960784%,66.27451%,46.666667%);fill-opacity:1;" d="M 145.921875 80.972656 L 148.625 80.972656 L 148.625 81.363281 L 145.921875 81.363281 Z M 145.921875 80.972656 "/>
<path style=" stroke:none;fill-rule:nonzero;fill:rgb(81.960784%,66.27451%,46.666667%);fill-opacity:1;" d="M 142.828125 90.273438 L 145.535156 90.273438 L 145.535156 90.660156 L 142.828125 90.660156 Z M 142.828125 90.273438 "/>
<path style=" stroke:none;fill-rule:nonzero;fill:rgb(81.960784%,66.27451%,46.666667%);fill-opacity:1;" d="M 136.257812 30.609375 L 136.257812 31.382812 L 137.03125 31.382812 L 137.03125 32.933594 L 136.257812 32.933594 L 136.257812 33.707031 L 138.1875 33.707031 L 138.1875 30.609375 Z M 136.257812 30.609375 "/>
<path style=" stroke:none;fill-rule:nonzero;fill:rgb(81.960784%,66.27451%,46.666667%);fill-opacity:1;" d="M 142.828125 25.183594 L 142.828125 25.957031 L 143.601562 25.957031 L 143.601562 27.507812 L 142.828125 27.507812 L 142.828125 28.28125 L 144.761719 28.28125 L 144.761719 25.183594 Z M 142.828125 25.183594 "/>
<path style=" stroke:none;fill-rule:nonzero;fill:rgb(81.960784%,66.27451%,46.666667%);fill-opacity:1;" d="M 150.171875 30.21875 L 150.171875 30.996094 L 150.945312 30.996094 L 150.945312 32.542969 L 150.171875 32.542969 L 150.171875 33.320312 L 152.105469 33.320312 L 152.105469 30.21875 Z M 150.171875 30.21875 "/>
<path style=" stroke:none;fill-rule:nonzero;fill:rgb(81.960784%,66.27451%,46.666667%);fill-opacity:1;" d="M 150.171875 45.328125 L 150.171875 46.105469 L 150.945312 46.105469 L 150.945312 47.65625 L 150.171875 47.65625 L 150.171875 48.429688 L 152.105469 48.429688 L 152.105469 45.328125 Z M 150.171875 45.328125 "/>
<path style=" stroke:none;fill-rule:nonzero;fill:rgb(81.960784%,66.27451%,46.666667%);fill-opacity:1;" d="M 150.171875 50.367188 L 150.171875 51.140625 L 150.945312 51.140625 L 150.945312 52.691406 L 150.171875 52.691406 L 150.171875 53.464844 L 152.105469 53.464844 L 152.105469 50.367188 Z M 150.171875 50.367188 "/>
<path style=" stroke:none;fill-rule:nonzero;fill:rgb(81.960784%,66.27451%,46.666667%);fill-opacity:1;" d="M 150.171875 34.871094 L 150.171875 35.644531 L 150.945312 35.644531 L 150.945312 37.195312 L 150.171875 37.195312 L 150.171875 37.96875 L 152.105469 37.96875 L 152.105469 34.871094 Z M 150.171875 34.871094 "/>
<path style=" stroke:none;fill-rule:nonzero;fill:rgb(81.960784%,66.27451%,46.666667%);fill-opacity:1;" d="M 146.304688 20.535156 L 146.304688 21.308594 L 147.078125 21.308594 L 147.078125 22.859375 L 146.304688 22.859375 L 146.304688 23.632812 L 148.238281 23.632812 L 148.238281 20.535156 Z M 146.304688 20.535156 "/>
<path style=" stroke:none;fill-rule:nonzero;fill:rgb(81.960784%,66.27451%,46.666667%);fill-opacity:1;" d="M 146.304688 45.328125 L 148.238281 45.328125 L 148.238281 48.429688 L 146.304688 48.429688 Z M 146.304688 45.328125 "/>
<path style=" stroke:none;fill-rule:nonzero;fill:rgb(81.960784%,66.27451%,46.666667%);fill-opacity:1;" d="M 146.304688 54.628906 L 148.238281 54.628906 L 148.238281 57.726562 L 146.304688 57.726562 Z M 146.304688 54.628906 "/>
<path style=" stroke:none;fill-rule:nonzero;fill:rgb(81.960784%,66.27451%,46.666667%);fill-opacity:1;" d="M 146.304688 49.980469 L 146.304688 50.753906 L 147.078125 50.753906 L 147.078125 52.304688 L 146.304688 52.304688 L 146.304688 53.078125 L 148.238281 53.078125 L 148.238281 49.980469 Z M 146.304688 49.980469 "/>
<path style=" stroke:none;fill-rule:nonzero;fill:rgb(81.960784%,66.27451%,46.666667%);fill-opacity:1;" d="M 142.828125 30.21875 L 142.828125 30.996094 L 143.601562 30.996094 L 143.601562 32.542969 L 142.828125 32.542969 L 142.828125 33.320312 L 144.761719 33.320312 L 144.761719 30.21875 Z M 142.828125 30.21875 "/>
<path style=" stroke:none;fill-rule:nonzero;fill:rgb(81.960784%,66.27451%,46.666667%);fill-opacity:1;" d="M 142.828125 35.257812 L 142.828125 36.03125 L 143.601562 36.03125 L 143.601562 37.582031 L 142.828125 37.582031 L 142.828125 38.355469 L 144.761719 38.355469 L 144.761719 35.257812 Z M 142.828125 35.257812 "/>
<path style=" stroke:none;fill-rule:nonzero;fill:rgb(81.960784%,66.27451%,46.666667%);fill-opacity:1;" d="M 142.828125 50.367188 L 144.761719 50.367188 L 144.761719 53.464844 L 142.828125 53.464844 Z M 142.828125 50.367188 "/>
<path style=" stroke:none;fill-rule:nonzero;fill:rgb(81.960784%,66.27451%,46.666667%);fill-opacity:1;" d="M 142.828125 45.328125 L 142.828125 46.105469 L 143.601562 46.105469 L 143.601562 47.65625 L 142.828125 47.65625 L 142.828125 48.429688 L 144.761719 48.429688 L 144.761719 45.328125 Z M 142.828125 45.328125 "/>
<path style=" stroke:none;fill-rule:nonzero;fill:rgb(81.960784%,66.27451%,46.666667%);fill-opacity:1;" d="M 142.828125 60.441406 L 144.761719 60.441406 L 144.761719 63.539062 L 142.828125 63.539062 Z M 142.828125 60.441406 "/>
<path style=" stroke:none;fill-rule:nonzero;fill:rgb(81.960784%,66.27451%,46.666667%);fill-opacity:1;" d="M 142.828125 55.402344 L 142.828125 56.179688 L 143.601562 56.179688 L 143.601562 57.726562 L 142.828125 57.726562 L 142.828125 58.503906 L 144.761719 58.503906 L 144.761719 55.402344 Z M 142.828125 55.402344 "/>
<path style=" stroke:none;fill-rule:nonzero;fill:rgb(81.960784%,66.27451%,46.666667%);fill-opacity:1;" d="M 142.828125 70.511719 L 144.761719 70.511719 L 144.761719 73.613281 L 142.828125 73.613281 Z M 142.828125 70.511719 "/>
<path style=" stroke:none;fill-rule:nonzero;fill:rgb(81.960784%,66.27451%,46.666667%);fill-opacity:1;" d="M 146.304688 69.738281 L 148.238281 69.738281 L 148.238281 72.835938 L 146.304688 72.835938 Z M 146.304688 69.738281 "/>
<path style=" stroke:none;fill-rule:nonzero;fill:rgb(81.960784%,66.27451%,46.666667%);fill-opacity:1;" d="M 142.828125 65.476562 L 142.828125 66.25 L 143.601562 66.25 L 143.601562 67.800781 L 142.828125 67.800781 L 142.828125 68.574219 L 144.761719 68.574219 L 144.761719 65.476562 Z M 142.828125 65.476562 "/>
<path style=" stroke:none;fill-rule:nonzero;fill:rgb(81.960784%,66.27451%,46.666667%);fill-opacity:1;" d="M 150.171875 65.476562 L 150.171875 66.25 L 150.945312 66.25 L 150.945312 67.800781 L 150.171875 67.800781 L 150.171875 68.574219 L 152.105469 68.574219 L 152.105469 65.476562 Z M 150.171875 65.476562 "/>
<path style=" stroke:none;fill-rule:nonzero;fill:rgb(81.960784%,66.27451%,46.666667%);fill-opacity:1;" d="M 169.886719 20.535156 L 171.816406 20.535156 L 171.816406 23.632812 L 169.886719 23.632812 Z M 169.886719 20.535156 "/>
<path style=" stroke:none;fill-rule:nonzero;fill:rgb(81.960784%,66.27451%,46.666667%);fill-opacity:1;" d="M 169.886719 25.570312 L 171.816406 25.570312 L 171.816406 28.671875 L 169.886719 28.671875 Z M 169.886719 25.570312 "/>
<path style=" stroke:none;fill-rule:nonzero;fill:rgb(81.960784%,66.27451%,46.666667%);fill-opacity:1;" d="M 169.886719 40.292969 L 171.816406 40.292969 L 171.816406 43.394531 L 169.886719 43.394531 Z M 169.886719 40.292969 "/>
<path style=" stroke:none;fill-rule:nonzero;fill:rgb(81.960784%,66.27451%,46.666667%);fill-opacity:1;" d="M 169.886719 30.21875 L 169.886719 30.996094 L 170.660156 30.996094 L 170.660156 32.542969 L 169.886719 32.542969 L 169.886719 33.320312 L 171.820312 33.320312 L 171.820312 30.21875 Z M 169.886719 30.21875 "/>
<path style=" stroke:none;fill-rule:nonzero;fill:rgb(81.960784%,66.27451%,46.666667%);fill-opacity:1;" d="M 169.886719 45.328125 L 169.886719 46.105469 L 170.660156 46.105469 L 170.660156 47.65625 L 169.886719 47.65625 L 169.886719 48.429688 L 171.820312 48.429688 L 171.820312 45.328125 Z M 169.886719 45.328125 "/>
<path style=" stroke:none;fill-rule:nonzero;fill:rgb(81.960784%,66.27451%,46.666667%);fill-opacity:1;" d="M 169.886719 50.367188 L 169.886719 51.140625 L 170.660156 51.140625 L 170.660156 52.691406 L 169.886719 52.691406 L 169.886719 53.464844 L 171.820312 53.464844 L 171.820312 50.367188 Z M 169.886719 50.367188 "/>
<path style=" stroke:none;fill-rule:nonzero;fill:rgb(81.960784%,66.27451%,46.666667%);fill-opacity:1;" d="M 169.886719 34.871094 L 169.886719 35.644531 L 170.660156 35.644531 L 170.660156 37.195312 L 169.886719 37.195312 L 169.886719 37.96875 L 171.820312 37.96875 L 171.820312 34.871094 Z M 169.886719 34.871094 "/>
<path style=" stroke:none;fill-rule:nonzero;fill:rgb(81.960784%,66.27451%,46.666667%);fill-opacity:1;" d="M 169.886719 65.476562 L 169.886719 66.25 L 170.660156 66.25 L 170.660156 67.800781 L 169.886719 67.800781 L 169.886719 68.574219 L 171.820312 68.574219 L 171.820312 65.476562 Z M 169.886719 65.476562 "/>
<path style=" stroke:none;fill-rule:nonzero;fill:rgb(81.960784%,66.27451%,46.666667%);fill-opacity:1;" d="M 142.828125 80.585938 L 144.761719 80.585938 L 144.761719 83.6875 L 142.828125 83.6875 Z M 142.828125 80.585938 "/>
<path style=" stroke:none;fill-rule:nonzero;fill:rgb(81.960784%,66.27451%,46.666667%);fill-opacity:1;" d="M 146.304688 74.773438 L 148.238281 74.773438 L 148.238281 77.875 L 146.304688 77.875 Z M 146.304688 74.773438 "/>
<path style=" stroke:none;fill-rule:nonzero;fill:rgb(81.960784%,66.27451%,46.666667%);fill-opacity:1;" d="M 142.828125 93.757812 L 144.761719 93.757812 L 144.761719 96.859375 L 142.828125 96.859375 Z M 142.828125 93.757812 "/>
<path style=" stroke:none;fill-rule:nonzero;fill:rgb(81.960784%,66.27451%,46.666667%);fill-opacity:1;" d="M 146.304688 84.460938 L 148.238281 84.460938 L 148.238281 87.558594 L 146.304688 87.558594 Z M 146.304688 84.460938 "/>
<path style=" stroke:none;fill-rule:nonzero;fill:rgb(81.960784%,66.27451%,46.666667%);fill-opacity:1;" d="M 142.828125 75.550781 L 142.828125 76.324219 L 143.601562 76.324219 L 143.601562 77.875 L 142.828125 77.875 L 142.828125 78.648438 L 144.761719 78.648438 L 144.761719 75.550781 Z M 142.828125 75.550781 "/>
<path style=" stroke:none;fill-rule:nonzero;fill:rgb(81.960784%,66.27451%,46.666667%);fill-opacity:1;" d="M 142.828125 99.183594 L 142.828125 99.957031 L 143.601562 99.957031 L 143.601562 101.507812 L 142.828125 101.507812 L 142.828125 102.28125 L 144.761719 102.28125 L 144.761719 99.183594 Z M 142.828125 99.183594 "/>
<path style=" stroke:none;fill-rule:nonzero;fill:rgb(81.960784%,66.27451%,46.666667%);fill-opacity:1;" d="M 164.085938 15.886719 L 166.019531 15.886719 L 166.019531 18.984375 L 164.085938 18.984375 Z M 164.085938 15.886719 "/>
<path style=" stroke:none;fill-rule:nonzero;fill:rgb(81.960784%,66.27451%,46.666667%);fill-opacity:1;" d="M 164.085938 40.292969 L 166.019531 40.292969 L 166.019531 43.394531 L 164.085938 43.394531 Z M 164.085938 40.292969 "/>
<path style=" stroke:none;fill-rule:nonzero;fill:rgb(81.960784%,66.27451%,46.666667%);fill-opacity:1;" d="M 164.085938 90.273438 L 166.792969 90.273438 L 166.792969 90.660156 L 164.085938 90.660156 Z M 164.085938 90.273438 "/>
<path style=" stroke:none;fill-rule:nonzero;fill:rgb(81.960784%,66.27451%,46.666667%);fill-opacity:1;" d="M 164.085938 25.183594 L 164.085938 25.957031 L 164.859375 25.957031 L 164.859375 27.507812 L 164.085938 27.507812 L 164.085938 28.28125 L 166.019531 28.28125 L 166.019531 25.183594 Z M 164.085938 25.183594 "/>
<path style=" stroke:none;fill-rule:nonzero;fill:rgb(81.960784%,66.27451%,46.666667%);fill-opacity:1;" d="M 164.085938 30.21875 L 164.085938 30.996094 L 164.859375 30.996094 L 164.859375 32.542969 L 164.085938 32.542969 L 164.085938 33.320312 L 166.019531 33.320312 L 166.019531 30.21875 Z M 164.085938 30.21875 "/>
<path style=" stroke:none;fill-rule:nonzero;fill:rgb(81.960784%,66.27451%,46.666667%);fill-opacity:1;" d="M 164.085938 35.257812 L 164.085938 36.03125 L 164.859375 36.03125 L 164.859375 37.582031 L 164.085938 37.582031 L 164.085938 38.355469 L 166.019531 38.355469 L 166.019531 35.257812 Z M 164.085938 35.257812 "/>
<path style=" stroke:none;fill-rule:nonzero;fill:rgb(81.960784%,66.27451%,46.666667%);fill-opacity:1;" d="M 164.085938 50.367188 L 166.019531 50.367188 L 166.019531 53.464844 L 164.085938 53.464844 Z M 164.085938 50.367188 "/>
<path style=" stroke:none;fill-rule:nonzero;fill:rgb(81.960784%,66.27451%,46.666667%);fill-opacity:1;" d="M 164.085938 45.328125 L 164.085938 46.105469 L 164.859375 46.105469 L 164.859375 47.65625 L 164.085938 47.65625 L 164.085938 48.429688 L 166.019531 48.429688 L 166.019531 45.328125 Z M 164.085938 45.328125 "/>
<path style=" stroke:none;fill-rule:nonzero;fill:rgb(81.960784%,66.27451%,46.666667%);fill-opacity:1;" d="M 164.085938 60.441406 L 166.019531 60.441406 L 166.019531 63.539062 L 164.085938 63.539062 Z M 164.085938 60.441406 "/>
<path style=" stroke:none;fill-rule:nonzero;fill:rgb(81.960784%,66.27451%,46.666667%);fill-opacity:1;" d="M 164.085938 55.402344 L 164.085938 56.179688 L 164.859375 56.179688 L 164.859375 57.726562 L 164.085938 57.726562 L 164.085938 58.503906 L 166.019531 58.503906 L 166.019531 55.402344 Z M 164.085938 55.402344 "/>
<path style=" stroke:none;fill-rule:nonzero;fill:rgb(81.960784%,66.27451%,46.666667%);fill-opacity:1;" d="M 164.085938 70.511719 L 166.019531 70.511719 L 166.019531 73.613281 L 164.085938 73.613281 Z M 164.085938 70.511719 "/>
<path style=" stroke:none;fill-rule:nonzero;fill:rgb(81.960784%,66.27451%,46.666667%);fill-opacity:1;" d="M 164.085938 65.476562 L 164.085938 66.25 L 164.859375 66.25 L 164.859375 67.800781 L 164.085938 67.800781 L 164.085938 68.574219 L 166.019531 68.574219 L 166.019531 65.476562 Z M 164.085938 65.476562 "/>
<path style=" stroke:none;fill-rule:nonzero;fill:rgb(81.960784%,66.27451%,46.666667%);fill-opacity:1;" d="M 164.085938 80.585938 L 166.019531 80.585938 L 166.019531 83.6875 L 164.085938 83.6875 Z M 164.085938 80.585938 "/>
<path style=" stroke:none;fill-rule:nonzero;fill:rgb(81.960784%,66.27451%,46.666667%);fill-opacity:1;" d="M 164.085938 93.757812 L 166.019531 93.757812 L 166.019531 96.859375 L 164.085938 96.859375 Z M 164.085938 93.757812 "/>
<path style=" stroke:none;fill-rule:nonzero;fill:rgb(81.960784%,66.27451%,46.666667%);fill-opacity:1;" d="M 164.085938 75.550781 L 164.085938 76.324219 L 164.859375 76.324219 L 164.859375 77.875 L 164.085938 77.875 L 164.085938 78.648438 L 166.019531 78.648438 L 166.019531 75.550781 Z M 164.085938 75.550781 "/>
<path style=" stroke:none;fill-rule:nonzero;fill:rgb(81.960784%,66.27451%,46.666667%);fill-opacity:1;" d="M 164.085938 99.183594 L 164.085938 99.957031 L 164.859375 99.957031 L 164.859375 101.507812 L 164.085938 101.507812 L 164.085938 102.28125 L 166.019531 102.28125 L 166.019531 99.183594 Z M 164.085938 99.183594 "/>
<path style=" stroke:none;fill-rule:nonzero;fill:rgb(81.960784%,66.27451%,46.666667%);fill-opacity:1;" d="M 173.363281 15.886719 L 175.296875 15.886719 L 175.296875 18.984375 L 173.363281 18.984375 Z M 173.363281 15.886719 "/>
<path style=" stroke:none;fill-rule:nonzero;fill:rgb(81.960784%,66.27451%,46.666667%);fill-opacity:1;" d="M 173.363281 40.292969 L 175.296875 40.292969 L 175.296875 43.394531 L 173.363281 43.394531 Z M 173.363281 40.292969 "/>
<path style=" stroke:none;fill-rule:nonzero;fill:rgb(81.960784%,66.27451%,46.666667%);fill-opacity:1;" d="M 173.363281 90.273438 L 176.070312 90.273438 L 176.070312 90.660156 L 173.363281 90.660156 Z M 173.363281 90.273438 "/>
<path style=" stroke:none;fill-rule:nonzero;fill:rgb(81.960784%,66.27451%,46.666667%);fill-opacity:1;" d="M 173.363281 25.183594 L 173.363281 25.957031 L 174.136719 25.957031 L 174.136719 27.507812 L 173.363281 27.507812 L 173.363281 28.28125 L 175.296875 28.28125 L 175.296875 25.183594 Z M 173.363281 25.183594 "/>
<path style=" stroke:none;fill-rule:nonzero;fill:rgb(81.960784%,66.27451%,46.666667%);fill-opacity:1;" d="M 173.363281 30.21875 L 173.363281 30.996094 L 174.136719 30.996094 L 174.136719 32.542969 L 173.363281 32.542969 L 173.363281 33.320312 L 175.296875 33.320312 L 175.296875 30.21875 Z M 173.363281 30.21875 "/>
<path style=" stroke:none;fill-rule:nonzero;fill:rgb(81.960784%,66.27451%,46.666667%);fill-opacity:1;" d="M 173.363281 35.257812 L 173.363281 36.03125 L 174.136719 36.03125 L 174.136719 37.582031 L 173.363281 37.582031 L 173.363281 38.355469 L 175.296875 38.355469 L 175.296875 35.257812 Z M 173.363281 35.257812 "/>
<path style=" stroke:none;fill-rule:nonzero;fill:rgb(81.960784%,66.27451%,46.666667%);fill-opacity:1;" d="M 173.363281 50.367188 L 175.296875 50.367188 L 175.296875 53.464844 L 173.363281 53.464844 Z M 173.363281 50.367188 "/>
<path style=" stroke:none;fill-rule:nonzero;fill:rgb(81.960784%,66.27451%,46.666667%);fill-opacity:1;" d="M 173.363281 45.328125 L 173.363281 46.105469 L 174.136719 46.105469 L 174.136719 47.65625 L 173.363281 47.65625 L 173.363281 48.429688 L 175.296875 48.429688 L 175.296875 45.328125 Z M 173.363281 45.328125 "/>
<path style=" stroke:none;fill-rule:nonzero;fill:rgb(81.960784%,66.27451%,46.666667%);fill-opacity:1;" d="M 173.363281 60.441406 L 175.296875 60.441406 L 175.296875 63.539062 L 173.363281 63.539062 Z M 173.363281 60.441406 "/>
<path style=" stroke:none;fill-rule:nonzero;fill:rgb(81.960784%,66.27451%,46.666667%);fill-opacity:1;" d="M 173.363281 55.402344 L 173.363281 56.179688 L 174.136719 56.179688 L 174.136719 57.726562 L 173.363281 57.726562 L 173.363281 58.503906 L 175.296875 58.503906 L 175.296875 55.402344 Z M 173.363281 55.402344 "/>
<path style=" stroke:none;fill-rule:nonzero;fill:rgb(81.960784%,66.27451%,46.666667%);fill-opacity:1;" d="M 173.363281 70.511719 L 175.296875 70.511719 L 175.296875 73.613281 L 173.363281 73.613281 Z M 173.363281 70.511719 "/>
<path style=" stroke:none;fill-rule:nonzero;fill:rgb(81.960784%,66.27451%,46.666667%);fill-opacity:1;" d="M 173.363281 65.476562 L 173.363281 66.25 L 174.136719 66.25 L 174.136719 67.800781 L 173.363281 67.800781 L 173.363281 68.574219 L 175.296875 68.574219 L 175.296875 65.476562 Z M 173.363281 65.476562 "/>
<path style=" stroke:none;fill-rule:nonzero;fill:rgb(81.960784%,66.27451%,46.666667%);fill-opacity:1;" d="M 173.363281 80.585938 L 175.296875 80.585938 L 175.296875 83.6875 L 173.363281 83.6875 Z M 173.363281 80.585938 "/>
<path style=" stroke:none;fill-rule:nonzero;fill:rgb(81.960784%,66.27451%,46.666667%);fill-opacity:1;" d="M 173.363281 93.757812 L 175.296875 93.757812 L 175.296875 96.859375 L 173.363281 96.859375 Z M 173.363281 93.757812 "/>
<path style=" stroke:none;fill-rule:nonzero;fill:rgb(81.960784%,66.27451%,46.666667%);fill-opacity:1;" d="M 173.363281 75.550781 L 173.363281 76.324219 L 174.136719 76.324219 L 174.136719 77.875 L 173.363281 77.875 L 173.363281 78.648438 L 175.296875 78.648438 L 175.296875 75.550781 Z M 173.363281 75.550781 "/>
<path style=" stroke:none;fill-rule:nonzero;fill:rgb(81.960784%,66.27451%,46.666667%);fill-opacity:1;" d="M 173.363281 99.183594 L 173.363281 99.957031 L 174.136719 99.957031 L 174.136719 101.507812 L 173.363281 101.507812 L 173.363281 102.28125 L 175.296875 102.28125 L 175.296875 99.183594 Z M 173.363281 99.183594 "/>
<path style=" stroke:none;fill-rule:nonzero;fill:rgb(81.960784%,66.27451%,46.666667%);fill-opacity:1;" d="M 146.304688 93.757812 L 146.304688 94.535156 L 147.078125 94.535156 L 147.078125 96.082031 L 146.304688 96.082031 L 146.304688 96.859375 L 148.238281 96.859375 L 148.238281 93.757812 Z M 146.304688 93.757812 "/>
<path style=" stroke:none;fill-rule:nonzero;fill:rgb(81.960784%,66.27451%,46.666667%);fill-opacity:1;" d="M 146.304688 98.796875 L 146.304688 99.570312 L 147.078125 99.570312 L 147.078125 101.121094 L 146.304688 101.121094 L 146.304688 101.894531 L 148.238281 101.894531 L 148.238281 98.796875 Z M 146.304688 98.796875 "/>
<path style=" stroke:none;fill-rule:nonzero;fill:rgb(81.960784%,66.27451%,46.666667%);fill-opacity:1;" d="M 136.257812 40.292969 L 136.257812 41.066406 L 137.03125 41.066406 L 137.03125 42.617188 L 136.257812 42.617188 L 136.257812 43.394531 L 138.1875 43.394531 L 138.1875 40.292969 Z M 136.257812 40.292969 "/>
<path style=" stroke:none;fill-rule:nonzero;fill:rgb(81.960784%,66.27451%,46.666667%);fill-opacity:1;" d="M 136.257812 60.050781 L 136.257812 60.828125 L 137.03125 60.828125 L 137.03125 62.378906 L 136.257812 62.378906 L 136.257812 63.152344 L 138.1875 63.152344 L 138.1875 60.050781 Z M 136.257812 60.050781 "/>
<path style=" stroke:none;fill-rule:nonzero;fill:rgb(81.960784%,66.27451%,46.666667%);fill-opacity:1;" d="M 136.257812 65.089844 L 136.257812 65.863281 L 137.03125 65.863281 L 137.03125 67.414062 L 136.257812 67.414062 L 136.257812 68.1875 L 138.1875 68.1875 L 138.1875 65.089844 Z M 136.257812 65.089844 "/>
<path style=" stroke:none;fill-rule:nonzero;fill:rgb(81.960784%,66.27451%,46.666667%);fill-opacity:1;" d="M 136.257812 75.164062 L 136.257812 75.9375 L 137.03125 75.9375 L 137.03125 77.488281 L 136.257812 77.488281 L 136.257812 78.261719 L 138.1875 78.261719 L 138.1875 75.164062 Z M 136.257812 75.164062 "/>
<path style=" stroke:none;fill-rule:nonzero;fill:rgb(81.960784%,66.27451%,46.666667%);fill-opacity:1;" d="M 136.257812 89.496094 L 136.257812 90.273438 L 137.03125 90.273438 L 137.03125 91.820312 L 136.257812 91.820312 L 136.257812 92.597656 L 138.1875 92.597656 L 138.1875 89.496094 Z M 136.257812 89.496094 "/>
<path style=" stroke:none;fill-rule:nonzero;fill:rgb(81.960784%,66.27451%,46.666667%);fill-opacity:1;" d="M 136.257812 93.757812 L 136.257812 94.535156 L 137.03125 94.535156 L 137.03125 96.082031 L 136.257812 96.082031 L 136.257812 96.859375 L 138.1875 96.859375 L 138.1875 93.757812 Z M 136.257812 93.757812 "/>
<path style=" stroke:none;fill-rule:nonzero;fill:rgb(81.960784%,66.27451%,46.666667%);fill-opacity:1;" d="M 156.355469 16.660156 L 158.289062 16.660156 L 158.289062 19.757812 L 156.355469 19.757812 Z M 156.355469 16.660156 "/>
<path style=" stroke:none;fill-rule:nonzero;fill:rgb(81.960784%,66.27451%,46.666667%);fill-opacity:1;" d="M 156.355469 21.695312 L 158.289062 21.695312 L 158.289062 24.796875 L 156.355469 24.796875 Z M 156.355469 21.695312 "/>
<path style=" stroke:none;fill-rule:nonzero;fill:rgb(81.960784%,66.27451%,46.666667%);fill-opacity:1;" d="M 155.582031 27.121094 L 158.289062 27.121094 L 158.289062 27.507812 L 155.582031 27.507812 Z M 155.582031 27.121094 "/>
<path style=" stroke:none;fill-rule:nonzero;fill:rgb(81.960784%,66.27451%,46.666667%);fill-opacity:1;" d="M 155.582031 51.917969 L 158.289062 51.917969 L 158.289062 52.304688 L 155.582031 52.304688 Z M 155.582031 51.917969 "/>
<path style=" stroke:none;fill-rule:nonzero;fill:rgb(81.960784%,66.27451%,46.666667%);fill-opacity:1;" d="M 155.582031 56.179688 L 158.289062 56.179688 L 158.289062 56.566406 L 155.582031 56.566406 Z M 155.582031 56.179688 "/>
<path style=" stroke:none;fill-rule:nonzero;fill:rgb(81.960784%,66.27451%,46.666667%);fill-opacity:1;" d="M 156.355469 30.609375 L 156.355469 31.382812 L 157.128906 31.382812 L 157.128906 32.933594 L 156.355469 32.933594 L 156.355469 33.707031 L 158.289062 33.707031 L 158.289062 30.609375 Z M 156.355469 30.609375 "/>
<path style=" stroke:none;fill-rule:nonzero;fill:rgb(81.960784%,66.27451%,46.666667%);fill-opacity:1;" d="M 156.355469 40.292969 L 156.355469 41.066406 L 157.128906 41.066406 L 157.128906 42.617188 L 156.355469 42.617188 L 156.355469 43.394531 L 158.289062 43.394531 L 158.289062 40.292969 Z M 156.355469 40.292969 "/>
<path style=" stroke:none;fill-rule:nonzero;fill:rgb(81.960784%,66.27451%,46.666667%);fill-opacity:1;" d="M 156.355469 60.050781 L 156.355469 60.828125 L 157.128906 60.828125 L 157.128906 62.378906 L 156.355469 62.378906 L 156.355469 63.152344 L 158.289062 63.152344 L 158.289062 60.050781 Z M 156.355469 60.050781 "/>
<path style=" stroke:none;fill-rule:nonzero;fill:rgb(81.960784%,66.27451%,46.666667%);fill-opacity:1;" d="M 178.390625 50.367188 L 180.324219 50.367188 L 180.324219 53.464844 L 178.390625 53.464844 Z M 178.390625 50.367188 "/>
<path style=" stroke:none;fill-rule:nonzero;fill:rgb(81.960784%,66.27451%,46.666667%);fill-opacity:1;" d="M 178.390625 55.402344 L 180.324219 55.402344 L 180.324219 58.503906 L 178.390625 58.503906 Z M 178.390625 55.402344 "/>
<path style=" stroke:none;fill-rule:nonzero;fill:rgb(81.960784%,66.27451%,46.666667%);fill-opacity:1;" d="M 177.617188 60.828125 L 180.324219 60.828125 L 180.324219 61.214844 L 177.617188 61.214844 Z M 177.617188 60.828125 "/>
<path style=" stroke:none;fill-rule:nonzero;fill:rgb(81.960784%,66.27451%,46.666667%);fill-opacity:1;" d="M 177.617188 85.625 L 180.324219 85.625 L 180.324219 86.011719 L 177.617188 86.011719 Z M 177.617188 85.625 "/>
<path style=" stroke:none;fill-rule:nonzero;fill:rgb(81.960784%,66.27451%,46.666667%);fill-opacity:1;" d="M 177.617188 89.886719 L 180.324219 89.886719 L 180.324219 90.273438 L 177.617188 90.273438 Z M 177.617188 89.886719 "/>
<path style=" stroke:none;fill-rule:nonzero;fill:rgb(81.960784%,66.27451%,46.666667%);fill-opacity:1;" d="M 178.390625 64.3125 L 178.390625 65.089844 L 179.164062 65.089844 L 179.164062 66.640625 L 178.390625 66.640625 L 178.390625 67.414062 L 180.320312 67.414062 L 180.320312 64.3125 Z M 178.390625 64.3125 "/>
<path style=" stroke:none;fill-rule:nonzero;fill:rgb(81.960784%,66.27451%,46.666667%);fill-opacity:1;" d="M 178.390625 74 L 178.390625 74.773438 L 179.164062 74.773438 L 179.164062 76.324219 L 178.390625 76.324219 L 178.390625 77.097656 L 180.320312 77.097656 L 180.320312 74 Z M 178.390625 74 "/>
<path style=" stroke:none;fill-rule:nonzero;fill:rgb(81.960784%,66.27451%,46.666667%);fill-opacity:1;" d="M 178.390625 93.757812 L 178.390625 94.535156 L 179.164062 94.535156 L 179.164062 96.082031 L 178.390625 96.082031 L 178.390625 96.859375 L 180.320312 96.859375 L 180.320312 93.757812 Z M 178.390625 93.757812 "/>
<path style=" stroke:none;fill-rule:nonzero;fill:rgb(18.431373%,18.039216%,25.490196%);fill-opacity:1;" d="M 53.710938 177.382812 L 261.011719 177.382812 L 261.011719 178.023438 L 53.710938 178.023438 Z M 53.710938 177.382812 "/>
<path style=" stroke:none;fill-rule:nonzero;fill:rgb(18.431373%,18.039216%,25.490196%);fill-opacity:1;" d="M 96.558594 101.511719 L 96.558594 114.566406 L 98.3125 122.601562 C 98.3125 122.601562 98.0625 127.621094 98.3125 129.128906 C 98.5625 130.636719 98.0625 133.144531 96.558594 133.144531 C 95.058594 133.144531 94.304688 136.910156 94.304688 136.910156 C 94.304688 136.910156 93.804688 138.417969 92.550781 138.667969 C 91.300781 138.921875 91.300781 138.667969 91.300781 138.667969 L 90.296875 141.179688 L 69.507812 154.988281 L 73.515625 165.03125 C 73.515625 165.03125 79.777344 162.769531 80.277344 162.015625 C 80.78125 161.265625 85.039062 163.023438 85.039062 161.265625 C 85.039062 159.507812 85.789062 154.988281 87.292969 154.738281 C 88.796875 154.484375 101.320312 148.710938 101.320312 148.710938 C 101.320312 148.710938 107.832031 141.429688 108.332031 138.667969 C 108.832031 135.90625 111.085938 128.125 111.085938 128.125 L 117.351562 138.667969 L 117.351562 159.757812 L 116.347656 171.054688 L 127.367188 169.550781 C 127.367188 169.550781 126.367188 162.519531 127.367188 161.515625 C 128.371094 160.511719 129.875 148.460938 128.871094 146.953125 C 127.871094 145.449219 129.371094 138.667969 128.871094 137.664062 C 128.371094 136.660156 128.621094 129.378906 127.367188 127.371094 C 126.117188 125.363281 118.601562 104.777344 118.601562 104.777344 Z M 96.558594 101.511719 "/>
<path style=" stroke:none;fill-rule:nonzero;fill:rgb(18.431373%,18.039216%,25.490196%);fill-opacity:1;" d="M 117.851562 170.554688 C 117.851562 170.554688 114.09375 176.828125 116.597656 177.582031 C 119.101562 178.335938 123.863281 177.582031 124.363281 177.582031 C 124.863281 177.582031 133.882812 177.835938 133.882812 177.835938 C 133.882812 177.835938 139.894531 176.578125 139.894531 174.820312 C 139.894531 173.0625 136.136719 173.0625 134.882812 172.8125 C 133.632812 172.5625 125.867188 169.550781 125.867188 169.550781 Z M 117.851562 170.554688 "/>
<path style=" stroke:none;fill-rule:nonzero;fill:rgb(18.431373%,18.039216%,25.490196%);fill-opacity:1;" d="M 70.660156 155.269531 C 70.660156 155.269531 63.417969 154.308594 63.726562 156.914062 C 64.03125 159.515625 66.613281 163.59375 66.8125 164.054688 C 66.945312 164.367188 68.527344 168.316406 69.535156 170.835938 C 70.261719 172.679688 71.355469 174.359375 72.75 175.769531 C 73.734375 176.753906 74.808594 177.546875 75.511719 177.242188 C 77.121094 176.542969 75.628906 173.085938 75.359375 171.835938 C 75.09375 170.582031 74.765625 162.242188 74.765625 162.242188 Z M 70.660156 155.269531 "/>
<path style=" stroke:none;fill-rule:nonzero;fill:rgb(53.72549%,52.156863%,65.882353%);fill-opacity:1;" d="M 120.980469 59.960938 L 128.996094 41.382812 C 128.996094 41.382812 128.246094 39.625 126.492188 39.878906 C 126.492188 39.878906 124.113281 33.726562 119.605469 33.726562 C 119.605469 33.726562 112.839844 29.960938 110.835938 33.726562 C 110.835938 33.726562 106.578125 37.492188 106.828125 41.007812 C 107.082031 44.523438 107.332031 47.03125 107.332031 47.03125 C 107.332031 47.03125 103.324219 47.535156 104.074219 49.542969 C 104.824219 51.550781 105.078125 51.550781 104.074219 52.304688 L 103.074219 53.058594 C 103.074219 53.058594 82.28125 71.886719 93.804688 99.503906 L 94.804688 103.773438 L 94.804688 107.789062 C 94.804688 107.789062 120.105469 108.039062 120.105469 107.789062 C 120.105469 107.539062 119.605469 106.03125 120.605469 105.027344 C 121.609375 104.023438 121.609375 102.515625 121.609375 102.515625 C 121.609375 102.515625 120.605469 97.496094 121.105469 95.988281 C 121.609375 94.484375 121.859375 87.957031 120.855469 86.449219 C 119.855469 84.941406 120.355469 72.890625 120.355469 72.890625 L 122.609375 68.625 L 121.859375 66.113281 L 121.105469 63.601562 Z M 120.980469 59.960938 "/>
<use xlink:href="#surface6" mask="url(#mask0)"/>
<path style=" stroke:none;fill-rule:nonzero;fill:rgb(94.901961%,94.901961%,94.901961%);fill-opacity:1;" d="M 120.980469 56.949219 C 120.980469 57.367188 120.644531 57.703125 120.230469 57.703125 C 119.816406 57.703125 119.480469 57.367188 119.480469 56.949219 C 119.480469 56.535156 119.816406 56.195312 120.230469 56.195312 C 120.644531 56.195312 120.980469 56.535156 120.980469 56.949219 Z M 120.980469 56.949219 "/>
<path style=" stroke:none;fill-rule:nonzero;fill:rgb(24.705882%,23.921569%,33.72549%);fill-opacity:1;" d="M 119.980469 56.949219 L 120.480469 56.949219 L 120.480469 68.75 L 119.980469 68.75 Z M 119.980469 56.949219 "/>
<path style=" stroke:none;fill-rule:nonzero;fill:rgb(100%,72.156863%,72.156863%);fill-opacity:1;" d="M 111.214844 111.179688 L 113.21875 115.445312 C 113.21875 115.445312 117.726562 113.941406 117.726562 113.1875 C 117.726562 112.433594 115.722656 109.167969 115.722656 109.167969 Z M 111.214844 111.179688 "/>
<path style=" stroke:none;fill-rule:nonzero;fill:rgb(53.72549%,52.156863%,65.882353%);fill-opacity:1;" d="M 108.332031 54.566406 C 108.332031 54.566406 102.570312 57.074219 101.570312 66.867188 C 100.566406 76.65625 105.078125 101.761719 107.332031 106.03125 C 109.585938 110.300781 111.085938 113.3125 111.085938 113.3125 L 117.851562 110.300781 C 117.851562 110.300781 114.84375 102.015625 115.09375 100.507812 C 115.347656 99.003906 114.59375 95.988281 114.59375 95.988281 L 113.59375 75.652344 C 113.59375 75.652344 117.851562 57.578125 108.332031 54.566406 Z M 108.332031 54.566406 "/>
</g>
</svg>
